<?xml version="1.0" encoding="UTF-8" standalone="no"?>
<svg
   xmlns:dc="http://purl.org/dc/elements/1.1/"
   xmlns:cc="http://creativecommons.org/ns#"
   xmlns:rdf="http://www.w3.org/1999/02/22-rdf-syntax-ns#"
   xmlns:svg="http://www.w3.org/2000/svg"
   xmlns="http://www.w3.org/2000/svg"
   xmlns:xlink="http://www.w3.org/1999/xlink"
   xmlns:sodipodi="http://sodipodi.sourceforge.net/DTD/sodipodi-0.dtd"
   xmlns:inkscape="http://www.inkscape.org/namespaces/inkscape"
   inkscape:version="1.0 (4035a4fb49, 2020-05-01)"
   height="22"
   width="22"
   sodipodi:docname="akregator.svg"
   id="svg40"
   xml:space="preserve"
   enable-background="new 0 0 1000 1000"
   viewBox="0 0 22 22"
   y="0px"
   x="0px"
   version="1.1"><metadata
   id="metadata26"><rdf:RDF><cc:Work
       rdf:about=""><dc:format>image/svg+xml</dc:format><dc:type
         rdf:resource="http://purl.org/dc/dcmitype/StillImage" /></cc:Work></rdf:RDF></metadata><defs
   id="defs44"><linearGradient
     id="linearGradient845"
     inkscape:collect="always"><stop
       id="stop841"
       offset="0"
       style="stop-color:#7f2aff;stop-opacity:1" /><stop
       id="stop843"
       offset="1"
       style="stop-color:#00ffff;stop-opacity:1" /></linearGradient><linearGradient
     gradientUnits="userSpaceOnUse"
     y2="718.03436"
     x2="712.89581"
     y1="254.11746"
     x1="233.84802"
     id="linearGradient847"
     xlink:href="#linearGradient845"
     inkscape:collect="always" /></defs><sodipodi:namedview
   inkscape:document-rotation="0"
   inkscape:current-layer="svg40"
   inkscape:window-maximized="1"
   inkscape:window-y="0"
   inkscape:window-x="0"
   inkscape:cy="7.6526643"
   inkscape:cx="-4.0635722"
   inkscape:zoom="18.040889"
   showgrid="false"
   id="namedview42"
   inkscape:window-height="1017"
   inkscape:window-width="1920"
   inkscape:pageshadow="2"
   inkscape:pageopacity="0"
   guidetolerance="10"
   gridtolerance="10"
   objecttolerance="10"
   borderopacity="1"
   bordercolor="#666666"
   pagecolor="#ffffff" />
<g
   transform="matrix(0.02040816,0,0,0.02040816,0.90091854,0.82292)"
   id="akregator"><g
     id="g6"><path
       style="fill:url(#linearGradient847);stroke-width:0.80000037;fill-opacity:1"
       inkscape:connector-curvature="0"
       id="path4"
       d="M 860.74867,118.40717 H 111.94853 c -9.76,0 -17.6,7.92 -17.6,17.6 V 884.8073 c 0,9.76 7.92,17.6 17.6,17.6 h 748.80014 c 9.76,0 17.60001,-7.92 17.60001,-17.6 V 136.00717 c 0,-9.68 -7.92001,-17.6 -17.60001,-17.6 z m -581.2001,670.96011 c -39.84001,0 -72.16002,-32.32001 -72.16002,-72.16002 0,-39.84 32.32001,-72.16001 72.16002,-72.16001 39.84,0 72.24001,32.32001 72.24001,72.16001 0,39.84001 -32.40001,72.16002 -72.24001,72.16002 z m 276.40004,-1.84 c -1.12,1.12 -2.56,1.68 -4.08,1.68 H 447.86859 c -3.12,0 -5.6,-2.48 -5.68,-5.6 -2.96,-125.52003 -103.52001,-226.08004 -229.04004,-229.04004 -3.12,-0.08 -5.6,-2.64 -5.6,-5.68 V 444.88722 c 0,-1.52 0.64,-2.96 1.68,-4.08 1.12,-1.04 2.64,-1.68 4.08,-1.6 91.12002,1.52 176.96004,37.92001 241.60004,102.64002 64.72001,64.64 101.12002,150.48002 102.64002,241.60004 0.08,1.52 -0.56,2.96 -1.6,4.08 z m 207.76004,0 c -1.04,1.04 -2.56,1.68 -4.08,1.68 H 655.62863 c -3.12,0 -5.68,-2.48 -5.68,-5.6 -2.96,-237.84004 -198.88004,-433.76008 -436.72008,-436.72008 -3.12,0 -5.6,-2.56 -5.6,-5.68 V 237.20718 c 0,-1.52 0.64,-2.96 1.68,-4.08 1.04,-1.04 2.32,-1.76 4.08,-1.68 146.56003,1.52 284.48005,59.60001 388.48007,163.52003 104.00002,104.00002 162.08003,241.92004 163.52003,388.48007 0,1.52 -0.64,2.96 -1.68,4.08 z" /></g><g
     id="g8" /><g
     id="g10" /><g
     id="g12" /><g
     id="g14" /><g
     id="g16" /><g
     id="g18" /><g
     id="g20" /><g
     id="g22" /><g
     id="g24" /><g
     id="g26" /><g
     id="g28" /><g
     id="g30" /><g
     id="g32" /><g
     id="g34" /><g
     id="g36" /></g>
<g
   transform="translate(29.164852,0.01853)"
   id="g23" /></svg>
