<?xml version="1.0" encoding="UTF-8" standalone="no"?>
<svg
   xmlns:dc="http://purl.org/dc/elements/1.1/"
   xmlns:cc="http://creativecommons.org/ns#"
   xmlns:rdf="http://www.w3.org/1999/02/22-rdf-syntax-ns#"
   xmlns:svg="http://www.w3.org/2000/svg"
   xmlns="http://www.w3.org/2000/svg"
   xmlns:xlink="http://www.w3.org/1999/xlink"
   xmlns:sodipodi="http://sodipodi.sourceforge.net/DTD/sodipodi-0.dtd"
   xmlns:inkscape="http://www.inkscape.org/namespaces/inkscape"
   height="33.574154"
   width="36.487286"
   inkscape:version="1.0 (4035a4fb49, 2020-05-01)"
   sodipodi:docname="applications.svg"
   id="svg10"
   xml:space="preserve"
   enable-background="new 0 0 1000 1000"
   viewBox="0 0 36.487285 33.574154"
   y="0px"
   x="0px"
   version="1.1"><defs
   id="defs14"><linearGradient
     inkscape:collect="always"
     id="linearGradient849"><stop
       style="stop-color:#6600ff;stop-opacity:1"
       offset="0"
       id="stop845" /><stop
       style="stop-color:#00ffff;stop-opacity:1"
       offset="1"
       id="stop847" /></linearGradient><linearGradient
     id="linearGradient833"
     inkscape:collect="always"><stop
       id="stop828"
       offset="0"
       style="stop-color:#00b4b4;stop-opacity:1" /><stop
       id="stop830"
       offset="1"
       style="stop-color:#6600ff;stop-opacity:1" /></linearGradient><linearGradient
     id="linearGradient832"
     inkscape:collect="always"><stop
       id="stop827"
       offset="0"
       style="stop-color:#6600ff;stop-opacity:1" /><stop
       id="stop829"
       offset="1"
       style="stop-color:#00ffff;stop-opacity:1" /></linearGradient><linearGradient
     gradientUnits="userSpaceOnUse"
     y2="990.1405"
     x2="633.53741"
     y1="392.68042"
     x1="27.572355"
     id="linearGradient823"
     xlink:href="#linearGradient849"
     inkscape:collect="always" /><linearGradient
     gradientUnits="userSpaceOnUse"
     y2="954.18433"
     x2="990"
     y1="45.815662"
     x1="-6.2208691"
     id="linearGradient831"
     xlink:href="#linearGradient832"
     inkscape:collect="always" /><linearGradient
     gradientTransform="matrix(0.93055634,0,0,0.93055634,24.416669,52.328138)"
     gradientUnits="userSpaceOnUse"
     y2="691.05554"
     x2="489.71155"
     y1="691.05554"
     x1="121.29168"
     id="linearGradient839"
     xlink:href="#linearGradient833"
     inkscape:collect="always" /><linearGradient
     gradientUnits="userSpaceOnUse"
     y2="510.29999"
     x2="814.40002"
     y1="510.29999"
     x1="185.7"
     id="linearGradient847"
     xlink:href="#linearGradient833"
     inkscape:collect="always" /></defs><sodipodi:namedview
   inkscape:document-rotation="0"
   inkscape:current-layer="svg10"
   inkscape:window-maximized="1"
   inkscape:window-y="0"
   inkscape:window-x="0"
   inkscape:cy="-2.5849787"
   inkscape:cx="-29.107109"
   inkscape:zoom="9.0204444"
   showgrid="false"
   id="namedview12"
   inkscape:window-height="1017"
   inkscape:window-width="1920"
   inkscape:pageshadow="2"
   inkscape:pageopacity="0"
   guidetolerance="10"
   gridtolerance="10"
   objecttolerance="10"
   borderopacity="1"
   bordercolor="#666666"
   pagecolor="#ffffff" />
<metadata
   id="metadata2"> Svg Vector Icons : http://www.onlinewebfonts.com/icon <rdf:RDF><cc:Work
     rdf:about=""><dc:format>image/svg+xml</dc:format><dc:type
       rdf:resource="http://purl.org/dc/dcmitype/StillImage" /><dc:title /></cc:Work></rdf:RDF></metadata>
<g
   transform="matrix(0.03516533,0,0,0.03516533,7.3983131,-7.3816149)"
   id="applications-other"><path
     inkscape:connector-curvature="0"
     style="fill:url(#linearGradient823);fill-opacity:1;stroke-width:0.60936677"
     id="path4"
     d="M 502.4898,990 H 114.68905 C 56.98213,990 10,943.01787 10,885.24991 V 497.5102 C 10,439.80311 56.98213,392.82098 114.68905,392.82098 h 387.73996 c 57.76788,0 104.74991,46.98213 104.74991,104.68922 V 885.24991 C 607.17892,943.01787 560.19689,990 502.4898,990 Z M 114.68905,408.42072 c -49.175782,0 -89.150201,39.97456 -89.150201,89.15027 v 387.73996 c 0,49.17575 39.974419,89.15034 89.150201,89.15034 h 387.73996 c 49.17571,0 89.15027,-39.97459 89.15027,-89.15034 V 497.5102 c 0,-49.17596 -39.97456,-89.15032 -89.15027,-89.15032 H 114.68905 Z" /><path
     inkscape:connector-curvature="0"
     style="fill:url(#linearGradient839);fill-opacity:1;stroke-width:0.54530853"
     id="path6"
     d="m 244.384,524.00387 h -64.23739 c -23.66634,0 -42.8612,19.19499 -42.8612,42.86114 v 64.29193 c 0,23.66653 19.19486,42.86119 42.8612,42.86119 h 64.29183 c 23.66641,0 42.86144,-19.19466 42.86144,-42.86119 v -64.34636 c -0.0555,-23.66656 -19.24959,-42.80671 -42.91588,-42.80671 z m 192.82107,0 h -64.23748 c -23.66624,0 -42.8611,19.19499 -42.8611,42.86114 v 64.29193 c 0,23.66653 19.19486,42.86119 42.8611,42.86119 h 64.29191 c 23.66656,0 42.86139,-19.19466 42.86139,-42.86119 v -64.34636 c -0.0551,-23.66656 -19.24967,-42.80671 -42.91582,-42.80671 z M 244.384,716.7702 h -64.23739 c -23.66634,0 -42.8612,19.19503 -42.8612,42.86144 v 64.29183 c 0,23.66634 19.19486,42.8612 42.8612,42.8612 h 64.29183 c 23.66641,0 42.86144,-19.19486 42.86144,-42.8612 V 759.63164 C 287.24428,735.96523 268.05029,716.7702 244.384,716.7702 Z m 192.82107,0 h -64.23748 c -23.66624,0 -42.8611,19.19503 -42.8611,42.86144 v 64.29183 c 0,23.66634 19.19486,42.8612 42.8611,42.8612 h 64.29191 c 23.66656,0 42.86139,-19.19486 42.86139,-42.8612 v -64.29183 c -0.0552,-23.66641 -19.24967,-42.86144 -42.91582,-42.86144 z" /></g>
<g
   transform="matrix(0.01632653,0,0,0.01632653,10.801853,43.451583)"
   id="applications-other-3"><path
     inkscape:connector-curvature="0"
     style="fill:url(#linearGradient831);fill-opacity:1.0"
     id="path4-6"
     d="M 818.2,990 H 181.8 C 87.1,990 10,912.9 10,818.1 V 181.8 C 10,87.1 87.1,10 181.8,10 H 818.1 C 912.9,10 990,87.1 990,181.8 V 818.1 C 990,912.9 912.9,990 818.2,990 Z M 181.8,35.6 c -80.7,0 -146.3,65.6 -146.3,146.3 v 636.3 c 0,80.7 65.6,146.3 146.3,146.3 h 636.3 c 80.7,0 146.3,-65.6 146.3,-146.3 V 181.8 C 964.4,101.1 898.8,35.5 818.1,35.5 H 181.8 Z" /><path
     inkscape:connector-curvature="0"
     style="fill:url(#linearGradient847);fill-opacity:1.0"
     id="path6-7"
     d="M 382.1,196 H 264.3 c -43.4,0 -78.6,35.2 -78.6,78.6 v 117.9 c 0,43.4 35.2,78.6 78.6,78.6 h 117.9 c 43.4,0 78.6,-35.2 78.6,-78.6 v -118 C 460.7,231.1 425.5,196 382.1,196 Z m 353.6,0 H 617.9 c -43.4,0 -78.6,35.2 -78.6,78.6 v 117.9 c 0,43.4 35.2,78.6 78.6,78.6 h 117.9 c 43.4,0 78.6,-35.2 78.6,-78.6 v -118 C 814.3,231.1 779.1,196 735.7,196 Z M 382.1,549.5 H 264.3 c -43.4,0 -78.6,35.2 -78.6,78.6 V 746 c 0,43.4 35.2,78.6 78.6,78.6 h 117.9 c 43.4,0 78.6,-35.2 78.6,-78.6 V 628.1 c -0.1,-43.4 -35.3,-78.6 -78.7,-78.6 z m 353.6,0 H 617.9 c -43.4,0 -78.6,35.2 -78.6,78.6 V 746 c 0,43.4 35.2,78.6 78.6,78.6 h 117.9 c 43.4,0 78.6,-35.2 78.6,-78.6 V 628.1 c -0.1,-43.4 -35.3,-78.6 -78.7,-78.6 z" /></g></svg>
