<?xml version="1.0" encoding="UTF-8" standalone="no"?>
<svg
   xmlns:dc="http://purl.org/dc/elements/1.1/"
   xmlns:cc="http://creativecommons.org/ns#"
   xmlns:rdf="http://www.w3.org/1999/02/22-rdf-syntax-ns#"
   xmlns:svg="http://www.w3.org/2000/svg"
   xmlns="http://www.w3.org/2000/svg"
   xmlns:xlink="http://www.w3.org/1999/xlink"
   xmlns:sodipodi="http://sodipodi.sourceforge.net/DTD/sodipodi-0.dtd"
   xmlns:inkscape="http://www.inkscape.org/namespaces/inkscape"
   inkscape:version="1.0 (4035a4fb49, 2020-05-01)"
   sodipodi:docname="applications.svg"
   id="svg17"
   version="1.1"
   height="32"
   width="32">
  <metadata
     id="metadata23">
    <rdf:RDF>
      <cc:Work
         rdf:about="">
        <dc:format>image/svg+xml</dc:format>
        <dc:type
           rdf:resource="http://purl.org/dc/dcmitype/StillImage" />
      </cc:Work>
    </rdf:RDF>
  </metadata>
  <defs
     id="defs21">
    <linearGradient
       gradientTransform="matrix(1.1199999,0,0,1.1199999,-27.239997,-1.9800147)"
       gradientUnits="userSpaceOnUse"
       id="_lgradient_4"
       x1="26.5"
       y1="15.999999"
       x2="51.5"
       y2="15.999999">
      <stop
         offset="0%"
         stop-opacity="1"
         style="stop-color:rgb(255,143,195)"
         id="stop15-3" />
      <stop
         offset="100%"
         stop-opacity="1"
         style="stop-color:rgb(161,161,255)"
         id="stop17-6" />
    </linearGradient>
    <linearGradient
       gradientUnits="userSpaceOnUse"
       y2="990.1405"
       x2="633.53741"
       y1="392.68042"
       x1="27.572355"
       id="linearGradient823"
       xlink:href="#linearGradient849"
       inkscape:collect="always"
       gradientTransform="matrix(0.74999906,0,0,0.74999906,127.20589,189.94451)" />
    <linearGradient
       inkscape:collect="always"
       id="linearGradient849">
      <stop
         style="stop-color:#6600ff;stop-opacity:1"
         offset="0"
         id="stop845" />
      <stop
         style="stop-color:#00ffff;stop-opacity:1"
         offset="1"
         id="stop847" />
    </linearGradient>
    <linearGradient
       gradientTransform="matrix(0.69791641,0,0,0.69791641,145.51829,229.19059)"
       gradientUnits="userSpaceOnUse"
       y2="691.05554"
       x2="489.71155"
       y1="691.05554"
       x1="121.29168"
       id="linearGradient839"
       xlink:href="#linearGradient833"
       inkscape:collect="always" />
    <linearGradient
       id="linearGradient833"
       inkscape:collect="always">
      <stop
         id="stop828"
         offset="0"
         style="stop-color:#00b4b4;stop-opacity:1" />
      <stop
         id="stop830"
         offset="1"
         style="stop-color:#6600ff;stop-opacity:1" />
    </linearGradient>
  </defs>
  <sodipodi:namedview
     inkscape:current-layer="applications-other-3"
     inkscape:window-maximized="1"
     inkscape:window-y="0"
     inkscape:window-x="0"
     inkscape:cy="16"
     inkscape:cx="16"
     inkscape:zoom="10.636102"
     showgrid="false"
     id="namedview19"
     inkscape:window-height="1011"
     inkscape:window-width="1920"
     inkscape:pageshadow="2"
     inkscape:pageopacity="0"
     guidetolerance="10"
     gridtolerance="10"
     objecttolerance="10"
     borderopacity="1"
     inkscape:document-rotation="0"
     bordercolor="#666666"
     pagecolor="#ffffff" />
  <g
     id="applications-other">
    <g
       style="clip-rule:evenodd;fill-rule:evenodd;stroke-linejoin:round;stroke-miterlimit:1.41421"
       id="applications-other-3"
       transform="translate(0.27357099,0.15566293)">
      <path
         style="fill:#ffffc1;fill-opacity:0;stroke-width:1.00213"
         d="M 22,0 V 32 H 54 V 0 Z"
         transform="translate(-21.999998,-1.5e-5)"
         id="rect817"
         inkscape:connector-curvature="0" />
      <g
         transform="matrix(0.04688709,0,0,0.04688709,1.1604304,-16.443222)"
         id="applications-other-36">
        <path
           inkscape:connector-curvature="0"
           style="fill:url(#linearGradient823);fill-opacity:1;stroke-width:0.609367"
           id="path4"
           d="M 502.4898,990 H 114.68905 C 56.98213,990 10,943.01787 10,885.24991 V 497.5102 C 10,439.80311 56.98213,392.82098 114.68905,392.82098 h 387.73996 c 57.76788,0 104.74991,46.98213 104.74991,104.68922 V 885.24991 C 607.17892,943.01787 560.19689,990 502.4898,990 Z M 114.68905,408.42072 c -49.175782,0 -89.150201,39.97456 -89.150201,89.15027 v 387.73996 c 0,49.17575 39.974419,89.15034 89.150201,89.15034 h 387.73996 c 49.17571,0 89.15027,-39.97459 89.15027,-89.15034 V 497.5102 c 0,-49.17596 -39.97456,-89.15032 -89.15027,-89.15032 H 114.68905 Z" />
        <path
           inkscape:connector-curvature="0"
           style="fill:url(#linearGradient839);fill-opacity:1;stroke-width:0.545309"
           id="path6"
           d="m 244.384,524.00387 h -64.23739 c -23.66634,0 -42.8612,19.19499 -42.8612,42.86114 v 64.29193 c 0,23.66653 19.19486,42.86119 42.8612,42.86119 h 64.29183 c 23.66641,0 42.86144,-19.19466 42.86144,-42.86119 v -64.34636 c -0.0555,-23.66656 -19.24959,-42.80671 -42.91588,-42.80671 z m 192.82107,0 h -64.23748 c -23.66624,0 -42.8611,19.19499 -42.8611,42.86114 v 64.29193 c 0,23.66653 19.19486,42.86119 42.8611,42.86119 h 64.29191 c 23.66656,0 42.86139,-19.19466 42.86139,-42.86119 v -64.34636 c -0.0551,-23.66656 -19.24967,-42.80671 -42.91582,-42.80671 z M 244.384,716.7702 h -64.23739 c -23.66634,0 -42.8612,19.19503 -42.8612,42.86144 v 64.29183 c 0,23.66634 19.19486,42.8612 42.8612,42.8612 h 64.29183 c 23.66641,0 42.86144,-19.19486 42.86144,-42.8612 V 759.63164 C 287.24428,735.96523 268.05029,716.7702 244.384,716.7702 Z m 192.82107,0 h -64.23748 c -23.66624,0 -42.8611,19.19503 -42.8611,42.86144 v 64.29183 c 0,23.66634 19.19486,42.8612 42.8611,42.8612 h 64.29191 c 23.66656,0 42.86139,-19.19486 42.86139,-42.8612 v -64.29183 c -0.0552,-23.66641 -19.24967,-42.86144 -42.91582,-42.86144 z" />
      </g>
    </g>
  </g>
</svg>
