<?xml version="1.0" encoding="UTF-8" standalone="no"?>
<svg
   xmlns:dc="http://purl.org/dc/elements/1.1/"
   xmlns:cc="http://creativecommons.org/ns#"
   xmlns:rdf="http://www.w3.org/1999/02/22-rdf-syntax-ns#"
   xmlns:svg="http://www.w3.org/2000/svg"
   xmlns="http://www.w3.org/2000/svg"
   xmlns:sodipodi="http://sodipodi.sourceforge.net/DTD/sodipodi-0.dtd"
   xmlns:inkscape="http://www.inkscape.org/namespaces/inkscape"
   viewBox="0 0 22 22"
   inkscape:output_extension="org.inkscape.output.svg.inkscape"
   sodipodi:docname="audio.svg"
   version="1.0"
   inkscape:version="1.0 (4035a4fb49, 2020-05-01)"
   sodipodi:version="0.32"
   id="svg7229"
   height="22"
   width="22">
  <defs
     id="defs7231">
    <style
       type="text/css"
       id="current-color-scheme" />
    <style
       id="style5"
       type="text/css" />
  </defs>
  <sodipodi:namedview
     inkscape:document-rotation="0"
     inkscape:lockguides="true"
     inkscape:bbox-nodes="true"
     inkscape:object-nodes="true"
     borderlayer="true"
     inkscape:showpageshadow="false"
     inkscape:snap-bbox="true"
     inkscape:window-maximized="1"
     gridtolerance="10000"
     inkscape:guide-bbox="true"
     showguides="false"
     inkscape:window-y="0"
     inkscape:window-x="0"
     inkscape:window-height="1017"
     inkscape:window-width="1920"
     showgrid="false"
     inkscape:current-layer="layer1"
     inkscape:document-units="px"
     inkscape:cy="-1.9073314"
     inkscape:cx="63.743121"
     inkscape:zoom="4.7777778"
     inkscape:pageshadow="2"
     inkscape:pageopacity="0"
     borderopacity="1"
     bordercolor="#000000"
     pagecolor="#ffffff"
     id="base">
    <inkscape:grid
       snapvisiblegridlinesonly="true"
       enabled="true"
       visible="true"
       empspacing="5"
       id="grid3780"
       type="xygrid" />
    <sodipodi:guide
       inkscape:locked="true"
       id="guide4176"
       orientation="22,0"
       position="8.2519531e-07,22.000005" />
    <sodipodi:guide
       inkscape:locked="true"
       id="guide4178"
       orientation="0,22"
       position="8.2519531e-07,4.5996094e-06" />
    <sodipodi:guide
       inkscape:locked="true"
       id="guide4180"
       orientation="-22,0"
       position="22.000001,4.5996094e-06" />
    <sodipodi:guide
       inkscape:locked="true"
       id="guide4182"
       orientation="0,-22"
       position="22.000001,22.000005" />
    <sodipodi:guide
       inkscape:locked="true"
       id="guide4184"
       orientation="16,0"
       position="3.0000008,19.000005" />
    <sodipodi:guide
       inkscape:locked="true"
       id="guide4186"
       orientation="0,16"
       position="7.7560775,1.2153398" />
    <sodipodi:guide
       inkscape:locked="true"
       id="guide4188"
       orientation="-16,0"
       position="19.000001,3.0000046" />
    <sodipodi:guide
       inkscape:locked="true"
       id="guide4190"
       orientation="0,-16"
       position="19.000001,19.000005" />
  </sodipodi:namedview>
  <metadata
     id="metadata7234">
    <rdf:RDF>
      <cc:Work
         rdf:about="">
        <dc:format>image/svg+xml</dc:format>
        <dc:type
           rdf:resource="http://purl.org/dc/dcmitype/StillImage" />
        <dc:title />
      </cc:Work>
    </rdf:RDF>
  </metadata>
  <g
     transform="translate(-214.53572,-404.50504)"
     id="layer1"
     inkscape:groupmode="layer"
     inkscape:label="Camada 1">
    <g
       id="audio-volume-high">
      <rect
         style="opacity:1;fill:none;fill-opacity:0.433213;stroke:none;stroke-width:0.1;stroke-linecap:square;stroke-linejoin:miter;stroke-miterlimit:4;stroke-dasharray:none;stroke-dashoffset:0;stroke-opacity:1"
         id="rect4208"
         width="22"
         height="22.000006"
         x="214.53572"
         y="404.50504" />
      <path
         sodipodi:nodetypes="cccccccccccccc"
         inkscape:connector-curvature="0"
         id="path4168"
         d="m 224.53572,406.50504 -5,6 -1,0 0,6 1,0 5,6 1,0 0,-18 z m -8,6 0,6 1,0 0,-6 z"
         style="fill:#d3dae3;fill-rule:evenodd;stroke:none;stroke-width:1px;stroke-linecap:butt;stroke-linejoin:miter;stroke-opacity:1;fill-opacity:1" />
      <path
         id="path4211-5"
         transform="translate(214.53572,404.50504)"
         d="M 15.414062 3.1699219 L 14.96875 4.0605469 A 7.999999 7.999999 0 0 1 19 11 A 7.999999 7.999999 0 0 1 14.966797 17.935547 L 15.417969 18.835938 A 9 9 0 0 0 20 11 A 9 9 0 0 0 15.414062 3.1699219 z "
         style="color:#000000;clip-rule:nonzero;display:inline;overflow:visible;visibility:visible;opacity:1;isolation:auto;mix-blend-mode:normal;color-interpolation:sRGB;color-interpolation-filters:linearRGB;solid-color:#000000;solid-opacity:1;fill:#d3dae3;fill-opacity:1;fill-rule:nonzero;stroke:none;stroke-width:2;stroke-linecap:butt;stroke-linejoin:miter;stroke-miterlimit:4;stroke-dasharray:none;stroke-dashoffset:0;stroke-opacity:1;color-rendering:auto;image-rendering:auto;shape-rendering:auto;text-rendering:auto;enable-background:accumulate" />
      <path
         id="path4211-5-5"
         transform="translate(214.53572,404.50504)"
         d="M 14.072266 5.8535156 L 13.623047 6.7519531 A 5 5 0 0 1 16 11 A 5 5 0 0 1 13.625 15.25 L 14.072266 16.144531 A 5.999999 5.999999 0 0 0 17 11 A 5.999999 5.999999 0 0 0 14.072266 5.8535156 z "
         style="color:#000000;clip-rule:nonzero;display:inline;overflow:visible;visibility:visible;opacity:1;isolation:auto;mix-blend-mode:normal;color-interpolation:sRGB;color-interpolation-filters:linearRGB;solid-color:#000000;solid-opacity:1;fill:#d3dae3;fill-opacity:1;fill-rule:nonzero;stroke:none;stroke-width:2;stroke-linecap:butt;stroke-linejoin:miter;stroke-miterlimit:4;stroke-dasharray:none;stroke-dashoffset:0;stroke-opacity:1;color-rendering:auto;image-rendering:auto;shape-rendering:auto;text-rendering:auto;enable-background:accumulate" />
      <path
         id="path4371-1-8"
         transform="translate(214.53572,404.50504)"
         d="M 12.855469 8.6445312 A 3 3.375 0 0 0 12.318359 9.4980469 A 2.0000045 2.0000045 0 0 1 13 11 A 2.0000045 2.0000045 0 0 1 12.316406 12.501953 A 3 3.375 0 0 0 12.853516 13.357422 A 3 3 0 0 0 14 11 A 3 3 0 0 0 12.855469 8.6445312 z "
         style="color:#000000;clip-rule:nonzero;display:inline;overflow:visible;visibility:visible;opacity:1;isolation:auto;mix-blend-mode:normal;color-interpolation:sRGB;color-interpolation-filters:linearRGB;solid-color:#000000;solid-opacity:1;fill:#d3dae3;fill-opacity:1;fill-rule:nonzero;stroke:none;stroke-width:2;stroke-linecap:butt;stroke-linejoin:miter;stroke-miterlimit:4;stroke-dasharray:none;stroke-dashoffset:0;stroke-opacity:1;color-rendering:auto;image-rendering:auto;shape-rendering:auto;text-rendering:auto;enable-background:accumulate" />
    </g>
    <g
       transform="translate(22,0)"
       id="audio-volume-medium">
      <rect
         y="404.50504"
         x="214.53572"
         height="22.000006"
         width="22"
         id="rect4167"
         style="opacity:1;fill:none;fill-opacity:0.433213;stroke:none;stroke-width:0.1;stroke-linecap:square;stroke-linejoin:miter;stroke-miterlimit:4;stroke-dasharray:none;stroke-dashoffset:0;stroke-opacity:1" />
      <path
         sodipodi:nodetypes="cccccccccccccc"
         inkscape:connector-curvature="0"
         id="path4168-3"
         d="m 224.53572,406.50504 -5,6 -1,0 0,6 1,0 5,6 1,0 0,-18 z m -8,6 0,6 1,0 0,-6 z"
         style="fill:#d3dbe3;fill-rule:evenodd;stroke:none;stroke-width:1px;stroke-linecap:butt;stroke-linejoin:miter;stroke-opacity:1;fill-opacity:1" />
      <path
         id="path4211-5-2"
         transform="translate(192.53572,404.50504)"
         d="M 37.414062 3.1699219 L 36.96875 4.0605469 A 7.9999952 7.9999952 0 0 1 41 11 A 7.9999952 7.9999952 0 0 1 36.966797 17.935547 L 37.417969 18.835938 A 9 9 0 0 0 42 11 A 9 9 0 0 0 37.414062 3.1699219 z "
         style="color:#000000;clip-rule:nonzero;display:inline;overflow:visible;visibility:visible;opacity:0.2;isolation:auto;mix-blend-mode:normal;color-interpolation:sRGB;color-interpolation-filters:linearRGB;solid-color:#000000;solid-opacity:1;fill:#00ffff;fill-opacity:1;fill-rule:nonzero;stroke:none;stroke-width:2;stroke-linecap:butt;stroke-linejoin:miter;stroke-miterlimit:4;stroke-dasharray:none;stroke-dashoffset:0;stroke-opacity:1;color-rendering:auto;image-rendering:auto;shape-rendering:auto;text-rendering:auto;enable-background:accumulate" />
      <path
         id="path4211-5-5-7"
         transform="translate(192.53572,404.50504)"
         d="M 36.072266 5.8535156 L 35.623047 6.7519531 A 5 5 0 0 1 38 11 A 5 5 0 0 1 35.625 15.25 L 36.072266 16.144531 A 5.999999 5.999999 0 0 0 39 11 A 5.999999 5.999999 0 0 0 36.072266 5.8535156 z "
         style="color:#000000;clip-rule:nonzero;display:inline;overflow:visible;visibility:visible;opacity:1;isolation:auto;mix-blend-mode:normal;color-interpolation:sRGB;color-interpolation-filters:linearRGB;solid-color:#000000;solid-opacity:1;fill:#d3dae3;fill-opacity:1;fill-rule:nonzero;stroke:none;stroke-width:2;stroke-linecap:butt;stroke-linejoin:miter;stroke-miterlimit:4;stroke-dasharray:none;stroke-dashoffset:0;stroke-opacity:1;color-rendering:auto;image-rendering:auto;shape-rendering:auto;text-rendering:auto;enable-background:accumulate" />
      <path
         id="path4371-1"
         transform="translate(192.53572,404.50504)"
         d="M 34.855469 8.6445312 A 3 3.375 0 0 0 34.318359 9.4980469 A 1.9999992 1.9999992 0 0 1 35 11 A 1.9999992 1.9999992 0 0 1 34.316406 12.501953 A 3 3.375 0 0 0 34.853516 13.357422 A 3 3 0 0 0 36 11 A 3 3 0 0 0 34.855469 8.6445312 z "
         style="color:#000000;clip-rule:nonzero;display:inline;overflow:visible;visibility:visible;opacity:1;isolation:auto;mix-blend-mode:normal;color-interpolation:sRGB;color-interpolation-filters:linearRGB;solid-color:#000000;solid-opacity:1;fill:#d3dae3;fill-opacity:1;fill-rule:nonzero;stroke:none;stroke-width:2;stroke-linecap:butt;stroke-linejoin:miter;stroke-miterlimit:4;stroke-dasharray:none;stroke-dashoffset:0;stroke-opacity:1;color-rendering:auto;image-rendering:auto;shape-rendering:auto;text-rendering:auto;enable-background:accumulate" />
    </g>
    <g
       id="audio-volume-low"
       transform="translate(44,0)">
      <rect
         style="opacity:1;fill:none;fill-opacity:0.433213;stroke:none;stroke-width:0.1;stroke-linecap:square;stroke-linejoin:miter;stroke-miterlimit:4;stroke-dasharray:none;stroke-dashoffset:0;stroke-opacity:1"
         id="rect4177"
         width="22"
         height="22.000006"
         x="214.53572"
         y="404.50504" />
      <path
         sodipodi:nodetypes="cccccccccccccc"
         inkscape:connector-curvature="0"
         id="path4168-3-6"
         d="m 224.53572,406.50504 -5,6 -1,0 0,6 1,0 5,6 1,0 0,-18 z m -8,6 0,6 1,0 0,-6 z"
         style="fill:#d3dae3;fill-rule:evenodd;stroke:none;stroke-width:1px;stroke-linecap:butt;stroke-linejoin:miter;stroke-opacity:1;fill-opacity:1" />
      <path
         id="path4211-5-2-9"
         transform="translate(170.53572,404.50504)"
         d="M 59.414062 3.1699219 L 58.96875 4.0605469 A 7.9999952 7.9999952 0 0 1 63 11 A 7.9999952 7.9999952 0 0 1 58.966797 17.935547 L 59.417969 18.835938 A 9 9 0 0 0 64 11 A 9 9 0 0 0 59.414062 3.1699219 z "
         style="color:#000000;clip-rule:nonzero;display:inline;overflow:visible;visibility:visible;opacity:0.2;isolation:auto;mix-blend-mode:normal;color-interpolation:sRGB;color-interpolation-filters:linearRGB;solid-color:#000000;solid-opacity:1;fill:#00ffff;fill-opacity:1;fill-rule:nonzero;stroke:none;stroke-width:2;stroke-linecap:butt;stroke-linejoin:miter;stroke-miterlimit:4;stroke-dasharray:none;stroke-dashoffset:0;stroke-opacity:1;color-rendering:auto;image-rendering:auto;shape-rendering:auto;text-rendering:auto;enable-background:accumulate" />
      <path
         id="path4211-5-5-7-3"
         transform="translate(170.53572,404.50504)"
         d="M 58.072266 5.8535156 L 57.623047 6.7519531 A 5 5 0 0 1 60 11 A 5 5 0 0 1 57.625 15.25 L 58.072266 16.144531 A 5.999999 5.999999 0 0 0 61 11 A 5.999999 5.999999 0 0 0 58.072266 5.8535156 z "
         style="color:#000000;clip-rule:nonzero;display:inline;overflow:visible;visibility:visible;opacity:0.2;isolation:auto;mix-blend-mode:normal;color-interpolation:sRGB;color-interpolation-filters:linearRGB;solid-color:#000000;solid-opacity:1;fill:#00ffff;fill-opacity:1;fill-rule:nonzero;stroke:none;stroke-width:2;stroke-linecap:butt;stroke-linejoin:miter;stroke-miterlimit:4;stroke-dasharray:none;stroke-dashoffset:0;stroke-opacity:1;color-rendering:auto;image-rendering:auto;shape-rendering:auto;text-rendering:auto;enable-background:accumulate" />
      <path
         id="path4371"
         transform="translate(170.53572,404.50504)"
         d="M 56.855469 8.6445312 A 3 3.375 0 0 0 56.318359 9.4980469 A 1.9999954 1.9999954 0 0 1 57 11 A 1.9999954 1.9999954 0 0 1 56.316406 12.501953 A 3 3.375 0 0 0 56.853516 13.357422 A 3 3 0 0 0 58 11 A 3 3 0 0 0 56.855469 8.6445312 z "
         style="color:#000000;clip-rule:nonzero;display:inline;overflow:visible;visibility:visible;opacity:1;isolation:auto;mix-blend-mode:normal;color-interpolation:sRGB;color-interpolation-filters:linearRGB;solid-color:#000000;solid-opacity:1;fill:#d3dae3;fill-opacity:1;fill-rule:nonzero;stroke:none;stroke-width:2;stroke-linecap:butt;stroke-linejoin:miter;stroke-miterlimit:4;stroke-dasharray:none;stroke-dashoffset:0;stroke-opacity:1;color-rendering:auto;image-rendering:auto;shape-rendering:auto;text-rendering:auto;enable-background:accumulate" />
    </g>
    <g
       transform="translate(66,0)"
       id="audio-volume-muted">
      <rect
         y="404.50504"
         x="214.53572"
         height="22.000006"
         width="22"
         id="rect4188"
         style="opacity:1;fill:none;fill-opacity:0.433213;stroke:none;stroke-width:0.1;stroke-linecap:square;stroke-linejoin:miter;stroke-miterlimit:4;stroke-dasharray:none;stroke-dashoffset:0;stroke-opacity:1" />
      <rect
         y="414.50504"
         x="227.53572"
         height="1.9999954"
         width="6.9999976"
         id="rect4165"
         style="color:#4d4d4d;clip-rule:nonzero;display:inline;overflow:visible;visibility:visible;opacity:1;isolation:auto;mix-blend-mode:normal;color-interpolation:sRGB;color-interpolation-filters:linearRGB;solid-color:#000000;solid-opacity:1;fill:#ff007f;fill-opacity:1;fill-rule:nonzero;stroke:none;stroke-width:1;stroke-linecap:square;stroke-linejoin:miter;stroke-miterlimit:4;stroke-dasharray:none;stroke-dashoffset:0;stroke-opacity:1;color-rendering:auto;image-rendering:auto;shape-rendering:auto;text-rendering:auto;enable-background:accumulate" />
      <path
         sodipodi:nodetypes="cccccccccccccc"
         inkscape:connector-curvature="0"
         id="path4168-3-6-7"
         d="m 224.53572,406.50504 -5,6 -1,0 0,6 1,0 5,6 1,0 0,-18 z m -8,6 0,6 1,0 0,-6 z"
         style="fill:#d3dae3;fill-rule:evenodd;stroke:none;stroke-width:1px;stroke-linecap:butt;stroke-linejoin:miter;stroke-opacity:1;fill-opacity:1" />
    </g>
  </g>
</svg>
