<?xml version="1.0" encoding="UTF-8" standalone="no"?>
<svg
   xmlns:dc="http://purl.org/dc/elements/1.1/"
   xmlns:cc="http://creativecommons.org/ns#"
   xmlns:rdf="http://www.w3.org/1999/02/22-rdf-syntax-ns#"
   xmlns:svg="http://www.w3.org/2000/svg"
   xmlns="http://www.w3.org/2000/svg"
   xmlns:xlink="http://www.w3.org/1999/xlink"
   xmlns:sodipodi="http://sodipodi.sourceforge.net/DTD/sodipodi-0.dtd"
   xmlns:inkscape="http://www.inkscape.org/namespaces/inkscape"
   inkscape:version="1.0 (4035a4fb49, 2020-05-01)"
   sodipodi:docname="bookmarks.svg"
   id="svg11"
   version="1.1"
   height="32"
   width="32">
  <metadata
     id="metadata17">
    <rdf:RDF>
      <cc:Work
         rdf:about="">
        <dc:format>image/svg+xml</dc:format>
        <dc:type
           rdf:resource="http://purl.org/dc/dcmitype/StillImage" />
      </cc:Work>
    </rdf:RDF>
  </metadata>
  <defs
     id="defs15">
    <linearGradient
       gradientUnits="userSpaceOnUse"
       gradientTransform="matrix(19.206691,0,0,28.000107,6.0550056,2.2700061)"
       y2="0.5"
       x2="1"
       y1="0.5"
       x1="0"
       id="_lgradient_1">
      <stop
         id="stop9"
         style="stop-color:rgb(242,55,239)"
         stop-opacity="1"
         offset="0%" />
      <stop
         id="stop11"
         style="stop-color:rgb(252,82,82)"
         stop-opacity="1"
         offset="98.69565217391305%" />
    </linearGradient>
    <linearGradient
       gradientUnits="userSpaceOnUse"
       gradientTransform="matrix(19.206691,0,0,28.000107,6.2711919,2.3832384)"
       y2="0.5"
       x2="1"
       y1="0.5"
       x1="0"
       id="_lgradient_1-3">
      <stop
         id="stop9-6"
         style="stop-color:rgb(242,55,239)"
         stop-opacity="1"
         offset="0%" />
      <stop
         id="stop11-7"
         style="stop-color:rgb(252,82,82)"
         stop-opacity="1"
         offset="98.69565217391305%" />
    </linearGradient>
    <linearGradient
       id="_lgradient_1-36"
       x1="0"
       y1="0.5"
       x2="1"
       y2="0.5"
       gradientTransform="matrix(19.206691,0,0,28.000107,6.2711923,2.3832385)"
       gradientUnits="userSpaceOnUse">
      <stop
         offset="0%"
         stop-opacity="1"
         style="stop-color:#ff005d;stop-opacity:1"
         id="stop9-7" />
      <stop
         offset="98.69565217391305%"
         stop-opacity="1"
         style="stop-color:#ff8b26;stop-opacity:0.98823529"
         id="stop11-5" />
    </linearGradient>
    <linearGradient
       inkscape:collect="always"
       xlink:href="#linearGradient826"
       id="linearGradient824"
       x1="-782.11884"
       y1="443.77658"
       x2="-760.96283"
       y2="464.48474"
       gradientUnits="userSpaceOnUse"
       gradientTransform="matrix(0.81818201,0,0,0.81818192,647.39669,-356.53203)" />
    <linearGradient
       id="linearGradient826"
       inkscape:collect="always">
      <stop
         id="stop822"
         offset="0"
         style="stop-color:#7137c8;stop-opacity:1" />
      <stop
         id="stop824"
         offset="1"
         style="stop-color:#00ffff;stop-opacity:1" />
    </linearGradient>
    <linearGradient
       inkscape:collect="always"
       xlink:href="#linearGradient826"
       id="linearGradient851"
       x1="27.167358"
       y1="28.612528"
       x2="1.2562926"
       y2="5.9696631"
       gradientUnits="userSpaceOnUse"
       gradientTransform="matrix(0.43748917,0,0,0.43748913,9.8252964,7.1199254)" />
  </defs>
  <sodipodi:namedview
     inkscape:current-layer="bookmarks-5"
     inkscape:window-maximized="1"
     inkscape:window-y="0"
     inkscape:window-x="0"
     inkscape:cy="7.282968"
     inkscape:cx="-4.6115107"
     inkscape:zoom="10.408989"
     showgrid="false"
     id="namedview13"
     inkscape:window-height="1011"
     inkscape:window-width="1920"
     inkscape:pageshadow="2"
     inkscape:pageopacity="0"
     guidetolerance="10"
     gridtolerance="10"
     objecttolerance="10"
     borderopacity="1"
     inkscape:document-rotation="0"
     bordercolor="#666666"
     pagecolor="#ffffff" />
  <g
     id="bookmarks">
    <g
       id="bookmarks-5"
       style="clip-rule:evenodd;fill-rule:evenodd;stroke-linejoin:round;stroke-miterlimit:1.41421"
       transform="translate(0.02534369,0.2700052)">
      <rect
         style="fill:#2020ff;fill-opacity:0"
         id="rect820"
         width="32"
         height="32"
         x="0"
         y="0" />
      <path
         d="M 25.174701,29.857351 H 6.9937914 c -2.70557,0 -4.90814,-2.20279 -4.90814,-4.91138 V 6.7658814 c 0,-2.70575 2.20257,-4.90853 4.90814,-4.90853 H 25.171861 c 2.70842,0 4.91099,2.20278 4.91099,4.90853 V 24.945971 c 0,2.70859 -2.20257,4.91138 -4.90815,4.91138 z M 6.9937914,2.5889014 c -2.30572,0 -4.17966,1.87412 -4.17966,4.17983 V 24.948811 c 0,2.30571 1.87394,4.17999 4.17966,4.17999 H 25.171861 c 2.30541,0 4.17965,-1.87428 4.17965,-4.17999 V 6.7658814 c 0,-2.3057 -1.87424,-4.17999 -4.17965,-4.17999 H 6.9937914 Z"
         id="path4"
         inkscape:connector-curvature="0"
         style="fill:url(#linearGradient824);fill-opacity:1;stroke-width:0.0285692" />
      <path
         d="m 11.082971,7.7868114 c -1.1561596,0.1246 -2.1710196,0.63367 -2.9920696,1.50288 -0.90258,0.9525996 -1.35455,2.0971496 -1.35144,3.4008496 0,1.04698 0.3409,2.05775 0.96375,2.87945 0.14676,0.19584 1.7134,1.78568 4.3503096,4.41909 l 4.11419,4.111 0.22473,-0.23556 c 0.12284,-0.13058 0.47134,-0.49213 0.77849,-0.8075 l 0.55431,-0.56873 0.20649,0.13779 c 0.49674,0.34067 1.17284,0.60872 1.78188,0.71722 0.51125,0.0878 1.34438,0.0562 1.8181,-0.0741 0.80755,-0.21343 1.42412,-0.57565 2.02526,-1.17679 0.65535,-0.65979 1.01811,-1.32949 1.21409,-2.25664 0.0866,-0.40902 0.0866,-1.27484 0,-1.67716 -0.13874,-0.62649 -0.37549,-1.188 -0.71866,-1.70246 -0.10614,-0.15915 -0.20223,-0.30759 -0.22089,-0.33317 -2.8e-4,-0.0256 0.0752,-0.16294 0.23923,-0.36215 0.58589,-0.6955 0.92007,-1.36185 1.09802,-2.18433 0.0891,-0.43056 0.0891,-1.44875 1.3e-4,-1.87613 -0.27921,-1.2782 -1.03316,-2.3795796 -2.12993,-3.1071396 -0.85862,-0.57259 -1.68822,-0.82619 -2.69469,-0.82255 -0.78697,2.7e-4 -1.35876,0.13854 -2.06818,0.48184 -0.52199,0.25383 -0.88821,0.53642 -1.6337,1.27853 l -0.6592,0.6559096 -0.68427,-0.6701796 c -0.88768,-0.87282 -1.43891,-1.2459 -2.25353,-1.51784 -0.55747,-0.1883 -1.37717,-0.27512 -1.96666,-0.21366 z m 1.20585,0.55762 c 0.66306,0.10871 1.31054,0.38389 1.85733,0.78988 0.31877,0.23529 0.42417,0.3332 1.24986,1.1986996 l 0.58793,0.61584 0.86103,-0.85493 c 0.91949,-0.9164796 1.21659,-1.1480196 1.77834,-1.3906996 1.228,-0.53221 2.73836,-0.46374 3.87741,0.17363 0.55527,0.30801 1.25153,0.97809 1.59191,1.5286796 0.94918,1.52868 0.84148,3.4842 -0.26479,4.92914 -0.10813,0.13848 -0.23512,0.29013 -0.28192,0.33319 l -0.0845,0.0792 -0.23569,-0.18489 c -0.55409,-0.43086 -1.18105,-0.78928 -1.39111,-0.78928 -0.0301,0 -0.0975,-0.0193 -0.14025,-0.0405 -0.19939,-0.10709 -1.27156,-0.16659 -1.80042,-0.10325 -1.87229,0.2352 -3.43353,1.69509 -3.78,3.53881 -0.0855,0.44907 -0.10955,1.04676 -0.0568,1.40137 0.0258,0.17042 0.0568,0.32256 0.074,0.33324 0.0172,0.0156 0.0313,0.0407 0.0313,0.0745 0,0.0276 0.0295,0.12228 0.0721,0.20649 0.039,0.0842 0.10669,0.28236 0.1524,0.44198 0.0453,0.17019 0.13043,0.35829 0.20605,0.46378 0.0726,0.0915 0.16023,0.24999 0.2069,0.34376 0.0398,0.0923 0.18829,0.29355 0.31841,0.44209 l 0.2359,0.27157 -0.18496,0.19913 c -0.35446,0.38045 -0.99972,1.05041 -1.01414,1.05041 -2.7e-4,0 -1.7745,-1.77451 -3.92963,-3.9443 -2.4192996,-2.43764 -3.9953796,-4.05661 -4.1259196,-4.23067 -0.89819,-1.20959 -1.08964,-2.79616 -0.51791,-4.234 0.73945,-1.8615996 2.7056696,-2.9627896 4.7089496,-2.6404196 z m 9.06168,6.8416896 c 0.7067,0.17791 1.30787,0.51445 1.83985,1.02517 0.50734,0.48159 0.80784,0.98534 1.00009,1.6808 0.11601,0.42351 0.15886,1.2133 0.0875,1.65175 -0.22508,1.41599 -1.23548,2.61823 -2.58678,3.07474 -0.77113,0.26447 -1.70217,0.26092 -2.47707,0 -0.7392,-0.2537 -1.54744,-0.85494 -1.95926,-1.46661 -0.79366,-1.16658 -0.89817,-2.66594 -0.27231,-3.9339 0.38081,-0.7785 1.10867,-1.47385 1.89427,-1.81457 0.79005,-0.34051 1.67739,-0.4199 2.47443,-0.21738 z"
         id="22-22-bookmarks"
         style="clip-rule:evenodd;fill:url(#linearGradient851);fill-opacity:1;fill-rule:evenodd;stroke-width:0.00188739;stroke-linejoin:round;stroke-miterlimit:1.41421"
         inkscape:connector-curvature="0" />
      <path
         d="m 20.996601,18.397851 -1.26237,1.23704 -0.60964,-0.57097 c -0.33395,-0.31182 -0.62524,-0.56697 -0.64472,-0.56697 -0.0202,0 -0.1125,0.0755 -0.2057,0.17124 l -0.17078,0.17104 0.79225,0.78025 c 0.4385,0.42983 0.81524,0.77644 0.83855,0.7727 0.0605,-0.0196 2.88928,-2.85849 2.88928,-2.9044 0,-0.0507 -0.27968,-0.32336 -0.33015,-0.32336 -0.0242,3.6e-4 -0.60537,0.55581 -1.29691,1.23335 z"
         id="path6"
         style="clip-rule:evenodd;fill:#00ffff;fill-opacity:1;fill-rule:evenodd;stroke-width:0.00200377;stroke-linejoin:round;stroke-miterlimit:1.41421"
         inkscape:connector-curvature="0" />
    </g>
  </g>
</svg>
