<?xml version="1.0" encoding="UTF-8" standalone="no"?>
<svg
   xmlns:dc="http://purl.org/dc/elements/1.1/"
   xmlns:cc="http://creativecommons.org/ns#"
   xmlns:rdf="http://www.w3.org/1999/02/22-rdf-syntax-ns#"
   xmlns:svg="http://www.w3.org/2000/svg"
   xmlns="http://www.w3.org/2000/svg"
   xmlns:xlink="http://www.w3.org/1999/xlink"
   xmlns:sodipodi="http://sodipodi.sourceforge.net/DTD/sodipodi-0.dtd"
   xmlns:inkscape="http://www.inkscape.org/namespaces/inkscape"
   width="8.7169828mm"
   height="7.81494mm"
   viewBox="0 0 32.946077 29.536781"
   version="1.1"
   id="svg840"
   inkscape:version="1.0 (4035a4fb49, 2020-05-01)"
   sodipodi:docname="bookmarks.svg">
  <defs
     id="defs834">
    <linearGradient
       inkscape:collect="always"
       id="linearGradient843">
      <stop
         style="stop-color:#7137c8;stop-opacity:1"
         offset="0"
         id="stop839" />
      <stop
         style="stop-color:#00ffff;stop-opacity:1"
         offset="1"
         id="stop841" />
    </linearGradient>
    <linearGradient
       id="linearGradient826"
       inkscape:collect="always">
      <stop
         id="stop822"
         offset="0"
         style="stop-color:#7137c8;stop-opacity:1" />
      <stop
         id="stop824"
         offset="1"
         style="stop-color:#00ffff;stop-opacity:1" />
    </linearGradient>
    <linearGradient
       inkscape:collect="always"
       xlink:href="#linearGradient843"
       id="linearGradient851"
       x1="27.167358"
       y1="28.612528"
       x2="1.2562926"
       y2="5.9696631"
       gradientUnits="userSpaceOnUse"
       gradientTransform="matrix(0.43748908,0,0,0.43748908,-778.31565,446.16766)" />
    <linearGradient
       inkscape:collect="always"
       xlink:href="#linearGradient826"
       id="linearGradient824"
       x1="-782.11884"
       y1="443.77658"
       x2="-760.96283"
       y2="464.48474"
       gradientUnits="userSpaceOnUse"
       gradientTransform="matrix(0.81818182,0,0,0.81818182,-140.74433,82.515738)" />
  </defs>
  <sodipodi:namedview
     id="base"
     pagecolor="#ffffff"
     bordercolor="#666666"
     borderopacity="1.0"
     inkscape:pageopacity="0.0"
     inkscape:pageshadow="2"
     inkscape:zoom="23.11624"
     inkscape:cx="14.521216"
     inkscape:cy="17.346411"
     inkscape:document-units="px"
     inkscape:current-layer="bookmarks"
     showgrid="false"
     inkscape:window-width="1920"
     inkscape:window-height="1015"
     inkscape:window-x="0"
     inkscape:window-y="0"
     inkscape:window-maximized="1"
     inkscape:document-rotation="0" />
  <metadata
     id="metadata837">
    <rdf:RDF>
      <cc:Work
         rdf:about="">
        <dc:format>image/svg+xml</dc:format>
        <dc:type
           rdf:resource="http://purl.org/dc/dcmitype/StillImage" />
        <dc:title />
      </cc:Work>
    </rdf:RDF>
  </metadata>
  <g
     inkscape:label="Layer 1"
     inkscape:groupmode="layer"
     id="bookmarks"
     transform="translate(788.16644,-438.77777)">
    <path
       d="m -766.06919,462.92795 h -11.68791 c -1.73925,0 -3.15514,-1.41607 -3.15514,-3.15738 v -11.68709 c 0,-1.73947 1.41589,-3.15553 3.15514,-3.15553 h 11.68607 c 1.7411,0 3.15699,1.41606 3.15699,3.15553 v 11.68709 c 0,1.74131 -1.41589,3.15738 -3.15515,3.15738 z m -11.68791,-17.52973 c -1.48204,0 -2.68675,1.20472 -2.68675,2.68711 v 11.68708 c 0,1.48239 1.20471,2.68709 2.68675,2.68709 h 11.68607 c 1.48209,0 2.68675,-1.2047 2.68675,-2.68709 v -11.68893 c 0,-1.48238 -1.20466,-2.68709 -2.68675,-2.68709 h -11.68607 z"
       id="path4"
       inkscape:connector-curvature="0"
       style="fill:url(#linearGradient824);fill-opacity:1;stroke-width:0.01836637" />
    <path
       d="m -775.1282,448.73969 c -0.7432,0.0807 -1.39574,0.40739 -1.92351,0.96628 -0.58018,0.61224 -0.87083,1.34815 -0.86872,2.18617 0,0.67298 0.219,1.32275 0.61947,1.85113 0.0946,0.12588 1.10158,1.14796 2.79659,2.84073 l 2.64491,2.64277 0.14433,-0.15137 c 0.0793,-0.0838 0.30302,-0.31641 0.50049,-0.51906 l 0.35631,-0.36555 0.13289,0.0884 c 0.3193,0.21899 0.75402,0.39119 1.14544,0.46095 0.32869,0.0573 0.86419,0.0362 1.16882,-0.0469 0.51923,-0.13728 0.91544,-0.3702 1.30198,-0.75664 0.42131,-0.42396 0.65439,-0.85459 0.78037,-1.45064 0.0566,-0.26302 0.0566,-0.81957 0,-1.07816 -0.089,-0.40264 -0.2414,-0.76375 -0.46194,-1.09446 -0.0675,-0.10225 -0.12995,-0.19769 -0.14193,-0.21417 -2.4e-4,-0.0156 0.048,-0.10476 0.15365,-0.23287 0.37679,-0.44693 0.59165,-0.87529 0.70592,-1.40412 0.0582,-0.27687 0.0582,-0.93134 1.3e-4,-1.20609 -0.17949,-0.82173 -0.66416,-1.52982 -1.36921,-1.99749 -0.55206,-0.36795 -1.08526,-0.53113 -1.73241,-0.52873 -0.50593,1.7e-4 -0.87348,0.089 -1.32946,0.30974 -0.33567,0.16311 -0.57093,0.34479 -1.05032,0.82187 l -0.42362,0.42167 -0.43995,-0.43089 c -0.57068,-0.56111 -0.92495,-0.80091 -1.44863,-0.97567 -0.35837,-0.12094 -0.88535,-0.17675 -1.26446,-0.13727 z m 0.77513,0.35844 c 0.42616,0.0691 0.84254,0.24679 1.19405,0.50778 0.20496,0.15129 0.27255,0.2142 0.80342,0.7707 l 0.37793,0.39584 0.55365,-0.54961 c 0.59091,-0.58908 0.78197,-0.73802 1.14316,-0.89402 0.78932,-0.34217 1.76036,-0.29802 2.49269,0.11163 0.35695,0.19801 0.80453,0.62881 1.02323,0.98268 0.61018,0.98272 0.54107,2.23992 -0.17011,3.16886 -0.0691,0.0888 -0.15112,0.18641 -0.18124,0.21419 l -0.0545,0.0503 -0.15164,-0.11884 c -0.35609,-0.27704 -0.75914,-0.50746 -0.89416,-0.50746 -0.0201,0 -0.0628,-0.0121 -0.0902,-0.0268 -0.12829,-0.0682 -0.81756,-0.10709 -1.15742,-0.0662 -1.20361,0.1512 -2.20737,1.0897 -2.43,2.2749 -0.0555,0.28872 -0.0698,0.67295 -0.0368,0.90092 0.0158,0.10956 0.0368,0.20734 0.0471,0.21423 0.0104,0.01 0.021,0.0266 0.021,0.0473 0,0.0176 0.0195,0.0789 0.0454,0.13271 0.0258,0.0542 0.068,0.18155 0.0981,0.28416 0.0285,0.10941 0.0838,0.23035 0.13247,0.29814 0.0459,0.0593 0.103,0.16065 0.13294,0.22102 0.0266,0.0595 0.12107,0.18865 0.20471,0.28415 l 0.15162,0.17457 -0.1189,0.12806 c -0.2278,0.24453 -0.64268,0.67521 -0.65192,0.67521 -1.4e-4,0 -1.14078,-1.14072 -2.52617,-2.53566 -1.55528,-1.56701 -2.56841,-2.60777 -2.65241,-2.7197 -0.57744,-0.77756 -0.70044,-1.7975 -0.33294,-2.72179 0.47534,-1.19679 1.73939,-1.90466 3.02723,-1.69742 z m 5.8254,4.39831 c 0.45426,0.11429 0.84083,0.33073 1.18281,0.65913 0.32598,0.30959 0.51916,0.63338 0.64273,1.0804 0.0751,0.27223 0.10226,0.78002 0.0571,1.06179 -0.14474,0.91039 -0.79429,1.68319 -1.66293,1.9767 -0.49583,0.17009 -1.09419,0.16764 -1.59243,0 -0.4752,-0.16302 -0.99481,-0.54954 -1.2596,-0.94289 -0.51011,-0.74986 -0.57732,-1.71384 -0.17499,-2.5289 0.24481,-0.5005 0.71275,-0.94753 1.21781,-1.16657 0.50788,-0.21879 1.07833,-0.2699 1.59057,-0.13966 z"
       id="22-22-bookmarks"
       style="clip-rule:evenodd;fill:url(#linearGradient851);fill-opacity:1;fill-rule:evenodd;stroke-width:0.00121339;stroke-linejoin:round;stroke-miterlimit:1.41421"
       inkscape:connector-curvature="0" />
    <path
       d="m -768.75529,455.56117 -0.81137,0.79528 -0.39192,-0.36703 c -0.21467,-0.20062 -0.40196,-0.36459 -0.41444,-0.36459 -0.013,0 -0.0725,0.0483 -0.13238,0.11 l -0.10978,0.11 0.50925,0.50157 c 0.28208,0.27647 0.5242,0.49912 0.53923,0.4967 0.0396,-0.0124 1.85728,-1.83753 1.85728,-1.867 0,-0.0317 -0.17968,-0.20798 -0.21215,-0.20798 -0.0149,2.6e-4 -0.38927,0.35743 -0.83381,0.79297 z"
       id="path6"
       style="clip-rule:evenodd;fill:#00ffff;fill-opacity:1;fill-rule:evenodd;stroke-width:0.00128809;stroke-linejoin:round;stroke-miterlimit:1.41421"
       inkscape:connector-curvature="0" />
  </g>
</svg>
