<?xml version="1.0" encoding="UTF-8" standalone="no"?>
<svg
   xmlns:dc="http://purl.org/dc/elements/1.1/"
   xmlns:cc="http://creativecommons.org/ns#"
   xmlns:rdf="http://www.w3.org/1999/02/22-rdf-syntax-ns#"
   xmlns:svg="http://www.w3.org/2000/svg"
   xmlns="http://www.w3.org/2000/svg"
   xmlns:xlink="http://www.w3.org/1999/xlink"
   xmlns:sodipodi="http://sodipodi.sourceforge.net/DTD/sodipodi-0.dtd"
   xmlns:inkscape="http://www.inkscape.org/namespaces/inkscape"
   id="svg2"
   width="30"
   height="30"
   version="1.0"
   inkscape:version="1.0 (4035a4fb49, 2020-05-01)"
   sodipodi:docname="computer.svg">
  <sodipodi:namedview
     pagecolor="#ffffff"
     bordercolor="#666666"
     borderopacity="1"
     objecttolerance="10"
     gridtolerance="10"
     guidetolerance="10"
     inkscape:pageopacity="0"
     inkscape:pageshadow="2"
     inkscape:window-width="1920"
     inkscape:window-height="1015"
     id="namedview24"
     showgrid="false"
     inkscape:zoom="7.0644502"
     inkscape:cx="-15.095032"
     inkscape:cy="29.528741"
     inkscape:window-x="0"
     inkscape:window-y="0"
     inkscape:window-maximized="1"
     inkscape:current-layer="svg2"
     inkscape:lockguides="true"
     inkscape:document-rotation="0">
    <inkscape:grid
       originy="20.237492"
       originx="-56.201578"
       type="xygrid"
       id="grid855" />
  </sodipodi:namedview>
  <metadata
     id="metadata7">
    <rdf:RDF>
      <cc:Work
         rdf:about="">
        <dc:format>image/svg+xml</dc:format>
        <dc:type
           rdf:resource="http://purl.org/dc/dcmitype/StillImage" />
        <dc:title />
      </cc:Work>
    </rdf:RDF>
  </metadata>
  <defs
     id="defs5">
    <linearGradient
       inkscape:collect="always"
       id="linearGradient913">
      <stop
         style="stop-color:#6600ff;stop-opacity:1"
         offset="0"
         id="stop909" />
      <stop
         style="stop-color:#00d455;stop-opacity:1"
         offset="1"
         id="stop911" />
    </linearGradient>
    <style
       id="current-color-scheme"
       type="text/css" />
    <linearGradient
       inkscape:collect="always"
       xlink:href="#linearGradient913"
       id="linearGradient915"
       x1="-99.381989"
       y1="-12.381282"
       x2="-63.704453"
       y2="21.921446"
       gradientUnits="userSpaceOnUse"
       gradientTransform="matrix(0.55358934,0,0,0.56892711,-43.581076,2.6284796)" />
    <linearGradient
       gradientUnits="userSpaceOnUse"
       y2="25.482641"
       x2="63.532982"
       y1="1.9628906"
       x1="33.074219"
       id="linearGradient833"
       xlink:href="#linearGradient913"
       inkscape:collect="always" />
    <linearGradient
       gradientUnits="userSpaceOnUse"
       y2="27"
       x2="32"
       y1="27"
       x1="64"
       id="linearGradient841"
       xlink:href="#linearGradient913"
       inkscape:collect="always" />
  </defs>
  <g
     style="fill:none;stroke:#ffffff"
     id="g4171"
     transform="translate(-151.30538,-32.944922)">
    <g
       transform="translate(-38.38147,-1006.1003)"
       style="stroke-width:0.5"
       id="g4173" />
    <g
       transform="translate(-39.59798,-1004.3622)"
       style="stroke-width:0.4"
       id="g4175" />
  </g>
  <g
     id="computer"
     inkscape:label="#g4213"
     transform="matrix(1.324074,0,0,1.324074,5.9532221,-6.7286282)">
    <g
       inkscape:label="#g4207"
       transform="translate(94.106787,11.912759)"
       id="computere">
      <path
         inkscape:connector-curvature="0"
         d="m -97.735619,-4.4406478 c -0.35791,0.041928 -0.65842,0.4131777 -0.656583,0.8114762 V 10.977392 c 0,0.42468 0.349359,0.811476 0.732938,0.811476 h 6.596438 v 1.369356 h 4.886256 v -1.369356 h 6.596451 c 0.383567,0 0.732938,-0.386796 0.732938,-0.811476 V -3.6291716 c 0,-0.4246721 -0.349371,-0.8114762 -0.732938,-0.8114762 h -18.079145 z m 0.96931,1.3693657 c 0.03046,-0.00672 0.06104,-0.00672 0.09161,0 h 17.055772 v 0 l 0.0087,13.5404191 0.0066,0.006 -17.9522,-0.03003 V 9.9216919 l 0.01745,-12.979826 c 0,0 0.865184,-0.012578 0.773558,-0.012578 z m 2.66424,17.6940961 v 0.572901 h 11.604856 v -0.572901 z"
         style="color:#000000;fill:url(#linearGradient915);fill-opacity:1;stroke-width:0.642673"
         id="path4181"
         sodipodi:nodetypes="ccssccccsssscccccccccscccccccc" />
    </g>
  </g>
  <g
     transform="scale(0.9375)"
     id="computer-laptop-6">
    <rect
       style="fill:#566060;fill-opacity:0;stroke:none"
       id="rect3847"
       width="32"
       height="32"
       x="0"
       y="-3.907985e-13" />
  </g>
  <g
     transform="matrix(0.5625,0,0,0.5625,21.01316,13.441223)"
     inkscape:label="#g4263"
     id="computer-laptop">
    <rect
       y="0"
       x="32.000008"
       height="32"
       width="32"
       id="rect4228"
       style="opacity:0.00100002;fill:#000000;fill-opacity:1;stroke:none;stroke-width:4;stroke-linecap:round;stroke-linejoin:round;stroke-miterlimit:4;stroke-dasharray:none;stroke-opacity:1" />
    <g
       id="g4257">
      <path
         sodipodi:nodetypes="ccsccsssccccsssssscc"
         inkscape:connector-curvature="0"
         id="path4254"
         d="M 33.074219,1.9628906 C 32.488219,2.0248906 31.997,2.5731094 32,3.1621094 V 24.761719 c 0,0.628 0.571219,1.201172 1.199219,1.201172 H 62.800781 C 63.428781,25.962891 64,25.389719 64,24.761719 V 3.1621094 c 0,-0.628 -0.571219,-1.1992188 -1.199219,-1.1992188 H 33.199219 Z m 1.58789,2.0234375 c 0.05,-0.01 0.100391,-0.01 0.150391,0 h 26.371094 c 0.419,0 0.800781,0.3817813 0.800781,0.8007813 V 23.199219 C 61.984375,23.618219 61.602594,24 61.183594,24 H 34.8125 c -0.419,0 -0.800781,-0.381781 -0.800781,-0.800781 V 4.7871094 c -0.007,-0.373 0.28339,-0.7307813 0.65039,-0.8007813 z"
         style="color:#000000;fill:url(#linearGradient833);fill-opacity:1" />
    </g>
    <rect
       style="opacity:1;fill:url(#linearGradient841);fill-opacity:1;stroke:none;stroke-width:4;stroke-linecap:round;stroke-linejoin:round;stroke-miterlimit:4;stroke-dasharray:none;stroke-opacity:1"
       id="rect4209"
       width="32"
       height="3"
       x="32"
       y="27"
       rx="1.3333334"
       ry="1" />
  </g>
</svg>
