<?xml version="1.0" encoding="UTF-8" standalone="no"?>
<svg
   xmlns:dc="http://purl.org/dc/elements/1.1/"
   xmlns:cc="http://creativecommons.org/ns#"
   xmlns:rdf="http://www.w3.org/1999/02/22-rdf-syntax-ns#"
   xmlns:svg="http://www.w3.org/2000/svg"
   xmlns="http://www.w3.org/2000/svg"
   xmlns:sodipodi="http://sodipodi.sourceforge.net/DTD/sodipodi-0.dtd"
   xmlns:inkscape="http://www.inkscape.org/namespaces/inkscape"
   version="1.1"
   sodipodi:docname="drive.svg"
   inkscape:version="1.0 (4035a4fb49, 2020-05-01)"
   height="22"
   width="22"
   id="svg2">
  <metadata
     id="metadata15">
    <rdf:RDF>
      <cc:Work
         rdf:about="">
        <dc:format>image/svg+xml</dc:format>
        <dc:type
           rdf:resource="http://purl.org/dc/dcmitype/StillImage" />
        <dc:title />
      </cc:Work>
    </rdf:RDF>
  </metadata>
  <sodipodi:namedview
     inkscape:document-rotation="0"
     showgrid="false"
     pagecolor="#ffffff"
     objecttolerance="10"
     inkscape:zoom="9.0602521"
     inkscape:window-y="0"
     inkscape:window-x="0"
     inkscape:window-width="1920"
     inkscape:window-maximized="1"
     inkscape:window-height="1017"
     inkscape:pageshadow="2"
     inkscape:pageopacity="0"
     inkscape:cy="7.835412"
     inkscape:cx="-14.863644"
     inkscape:current-layer="svg2"
     guidetolerance="10"
     gridtolerance="10"
     borderopacity="1"
     bordercolor="#000000"
     id="namedview12" />
  <defs
     id="defs4">
    <style
       id="current-color-scheme" />
  </defs>
  <rect
     opacity="0"
     ry="0"
     height="16"
     width="16"
     y="-19.39"
     x="-20.43"
     class="ColorScheme-Text"
     id="rect3018" />
  <g
     id="16-16-drive-harddisk">
    <rect
       opacity="0"
       ry="0"
       height="16"
       width="16"
       y="6"
       x="-20"
       id="rect3835" />
    <path
       style="fill:#d3dbe3;fill-opacity:1"
       fill="currentColor"
       d="m-17 7c-1 0-1 1-1 1v12s0 1 1 1h10s1 0 1-1v-12s0-1-1-1zm5 2c2.2091 0 4 1.7909 4 4s-1.7909 4-4 4h-4v-4c0-2.2091 1.7909-4 4-4zm0 2c-1.1046 0-2 0.89543-2 2s0.89543 2 2 2 2-0.89543 2-2-0.89543-2-2-2z"
       class="ColorScheme-Text"
       id="rect8476" />
  </g>
  <g
     id="drive-harddisk">
    <path
       style="fill:#d3dae3;fill-opacity:1"
       inkscape:connector-curvature="0"
       fill="#dedede"
       d="m6 2c-1.108 0-2 0.892-2 2v14c0 1.108 0.892 2 2 2h10c1.108 0 2-0.892 2-2v-14c0-1.108-0.892-2-2-2zm0 2h1v2h-1zm2 0h1v2h-1zm2 0h1v2h-1zm2 0h1v2h-1zm2 1h1v1h-1zm-3 2a5 5 0 0 1 5 5 5 5 0 0 1-5 5 5 5 0 0 1-5-5 5 5 0 0 1 5-5zm5 10a1 1 0 0 1 1 1 1 1 0 0 1-1 1 1 1 0 0 1-1-1 1 1 0 0 1 1-1z"
       id="rect41" />
    <path
       inkscape:connector-curvature="0"
       opacity="0"
       d="m0 0h22v22h-22z"
       id="rect4148" />
    <g
       fill="#dedede"
       id="g13">
      <circle
         style="fill:#00ffff"
         r="2"
         cy="12"
         cx="11"
         id="circle57" />
    </g>
  </g>
</svg>
