<?xml version="1.0" encoding="UTF-8" standalone="no"?>
<svg
   xmlns:dc="http://purl.org/dc/elements/1.1/"
   xmlns:cc="http://creativecommons.org/ns#"
   xmlns:rdf="http://www.w3.org/1999/02/22-rdf-syntax-ns#"
   xmlns:svg="http://www.w3.org/2000/svg"
   xmlns="http://www.w3.org/2000/svg"
   xmlns:sodipodi="http://sodipodi.sourceforge.net/DTD/sodipodi-0.dtd"
   xmlns:inkscape="http://www.inkscape.org/namespaces/inkscape"
   inkscape:version="1.0 (4035a4fb49, 2020-05-01)"
   height="32"
   width="32"
   sodipodi:docname="edit.svg"
   version="1.1"
   viewBox="0 0 32 32"
   id="svg2">
  <metadata
     id="metadata17">
    <rdf:RDF>
      <cc:Work
         rdf:about="">
        <dc:format>image/svg+xml</dc:format>
        <dc:type
           rdf:resource="http://purl.org/dc/dcmitype/StillImage" />
        <dc:title />
      </cc:Work>
    </rdf:RDF>
  </metadata>
  <defs
     id="defs15" />
  <sodipodi:namedview
     inkscape:document-rotation="0"
     inkscape:lockguides="true"
     inkscape:current-layer="svg2"
     inkscape:window-maximized="1"
     inkscape:window-y="0"
     inkscape:window-x="0"
     inkscape:cy="5.051675"
     inkscape:cx="-9.0256624"
     inkscape:zoom="7.4762719"
     showgrid="false"
     id="namedview13"
     inkscape:window-height="1017"
     inkscape:window-width="1920"
     inkscape:pageshadow="2"
     inkscape:pageopacity="0"
     guidetolerance="10"
     gridtolerance="10"
     objecttolerance="10"
     borderopacity="1"
     bordercolor="#000000"
     pagecolor="#ffffff" />
  <style
     id="current-color-scheme"
     type="text/css" />
  <g
     transform="translate(-30.502092)"
     id="22-22-edit-delete">
    <path
       style="fill:none"
       inkscape:connector-curvature="0"
       d="M 0,10 V 32 H 22 V 10 Z"
       id="path9" />
    <path
       style="color:#da4453;fill:#4040c2;fill-opacity:1"
       inkscape:connector-curvature="0"
       class="ColorScheme-NegativeText"
       d="m 8,13 v 2 h 1 v -1 h 4 v 1 h 1 v -2 z m -4,3 v 1 h 14 v -1 z m 2,2 V 29 H 16 V 18 H 15 V 28 H 7 V 18 Z"
       id="path832" />
  </g>
  <g
     transform="translate(-22)"
     id="edit-delete">
    <path
       style="fill:none"
       inkscape:connector-curvature="0"
       d="M 22,0 V 32 H 54 V 0 Z"
       id="path14" />
    <path
       style="color:#da4453;fill:#4242c2;fill-opacity:1"
       inkscape:connector-curvature="0"
       class="ColorScheme-NegativeText"
       d="M 46,10 V 28 H 30 V 10 h 1 V 27 H 45 V 10 Z M 49,8 H 27 V 9 H 49 Z M 42,4 V 7 H 41 V 5 H 35 V 7 H 34 V 4 Z"
       id="path863" />
  </g>
  <g
     transform="translate(-30.502092)"
     id="16-16-edit-delete">
    <path
       style="fill:none"
       inkscape:connector-curvature="0"
       d="M -16,16 H 0 v 16 h -16 z"
       id="rect925" />
    <path
       style="color:#da4453;fill:#4040c2;fill-opacity:1"
       inkscape:connector-curvature="0"
       class="ColorScheme-NegativeText"
       d="m -11,18 v 2 h 1 v -1 h 4 v 1 h 1 v -2 h -5 z m -3,3 v 1 h 2 v 8 h 8 v -8 h 2 v -1 z m 3,1 h 6 v 7 h -6 z"
       id="path915" />
  </g>
</svg>
