<?xml version="1.0" encoding="UTF-8" standalone="no"?>
<svg
   xmlns:dc="http://purl.org/dc/elements/1.1/"
   xmlns:cc="http://creativecommons.org/ns#"
   xmlns:rdf="http://www.w3.org/1999/02/22-rdf-syntax-ns#"
   xmlns:svg="http://www.w3.org/2000/svg"
   xmlns="http://www.w3.org/2000/svg"
   xmlns:xlink="http://www.w3.org/1999/xlink"
   xmlns:sodipodi="http://sodipodi.sourceforge.net/DTD/sodipodi-0.dtd"
   xmlns:inkscape="http://www.inkscape.org/namespaces/inkscape"
   sodipodi:docname="kaffeine.svg"
   inkscape:version="1.0 (4035a4fb49, 2020-05-01)"
   version="1.0"
   width="24"
   height="24"
   id="svg3215">
  <defs
     id="defs9">
    <radialGradient
       r="10"
       fy="18.634663"
       fx="8.0929317"
       cy="18.634663"
       cx="8.0929317"
       gradientTransform="matrix(1.4118279,-0.66865338,0.59646688,1.2594097,-10.697853,3.869394)"
       gradientUnits="userSpaceOnUse"
       id="radialGradient3021"
       xlink:href="#linearGradient16006"
       inkscape:collect="always" />
    <linearGradient
       id="linearGradient16006">
      <stop
         id="stop16008"
         offset="0"
         style="stop-color:#ffffff;stop-opacity:0.92086333;" />
      <stop
         style="stop-color:#ffffff;stop-opacity:0.88489211;"
         offset="0.25"
         id="stop16016" />
      <stop
         style="stop-color:#ffffff;stop-opacity:0.39215687;"
         offset="0.5"
         id="stop16014" />
      <stop
         id="stop16010"
         offset="1"
         style="stop-color:#ffffff;stop-opacity:0.89928055;" />
    </linearGradient>
    <linearGradient
       id="linearGradient16121">
      <stop
         id="stop16123"
         offset="0"
         style="stop-color:#ffffff;stop-opacity:0.74100721;" />
      <stop
         id="stop16125"
         offset="1"
         style="stop-color:#ffffff;stop-opacity:0.35251799;" />
    </linearGradient>
    <radialGradient
       r="7.4207759"
       fy="10.69008"
       fx="10.322598"
       cy="10.69008"
       cx="10.322598"
       gradientTransform="matrix(1.4962962,1.0267033,-0.82996344,1.2095717,31.749309,-12.763909)"
       gradientUnits="userSpaceOnUse"
       id="radialGradient3011"
       xlink:href="#linearGradient16121"
       inkscape:collect="always" />
    <linearGradient
       id="linearGradient3050">
      <stop
         id="stop3052"
         offset="0"
         style="stop-color:#ffffff;stop-opacity:0.74100721;" />
      <stop
         id="stop3054"
         offset="1"
         style="stop-color:#ffffff;stop-opacity:0.35251799;" />
    </linearGradient>
  </defs>
  <sodipodi:namedview
     inkscape:document-rotation="0"
     inkscape:lockguides="true"
     inkscape:current-layer="svg3215"
     inkscape:window-maximized="1"
     inkscape:window-y="0"
     inkscape:window-x="0"
     inkscape:cy="6.3425672"
     inkscape:cx="49.624137"
     inkscape:zoom="9.0602523"
     showgrid="false"
     id="namedview7"
     inkscape:window-height="1017"
     inkscape:window-width="1920"
     inkscape:pageshadow="2"
     inkscape:pageopacity="0.58823529"
     guidetolerance="10"
     gridtolerance="10"
     objecttolerance="10"
     borderopacity="1"
     bordercolor="#000000"
     pagecolor="#ffffff">
    <inkscape:grid
       snapvisiblegridlinesonly="true"
       enabled="true"
       visible="true"
       empspacing="5"
       id="grid2986"
       type="xygrid" />
  </sodipodi:namedview>
  <metadata
     id="metadata12">
    <rdf:RDF>
      <cc:Work
         rdf:about="">
        <dc:format>image/svg+xml</dc:format>
        <dc:type
           rdf:resource="http://purl.org/dc/dcmitype/StillImage" />
        <dc:title />
      </cc:Work>
    </rdf:RDF>
  </metadata>
  <g
     id="kaffeine">
    <rect
       style="opacity:0.01000001;fill:#000000;fill-opacity:0.00392157;stroke:none"
       id="rect2991"
       width="24"
       height="24"
       x="0"
       y="0" />
    <path
       style="opacity:0;fill:#000000;fill-opacity:0"
       inkscape:connector-curvature="0"
       d="M 20,5.5 H 4 c -0.532,0 -1,0.467 -1,1 v 13 c 0,0.533 0.468,1 1,1 h 16 c 0.533,0 1,-0.467 1,-1 v -13 c 0,-0.533 -0.467,-1 -1,-1 z m -14.5,14 h -1 v -1 h 1 v 1 z m 0,-2 h -1 v -1 h 1 v 1 z m 0,-2 h -1 v -1 h 1 v 1 z m 0,-2 h -1 v -1 h 1 v 1 z m 0,-2 h -1 v -1 h 1 v 1 z m 0,-2 h -1 v -1 h 1 v 1 z m 0,-2 h -1 v -1 h 1 v 1 z m 8.767,6.741 c -0.61,0.431 -1.226,0.85 -1.849,1.259 -0.621,0.408 -1.226,0.785 -1.815,1.129 C 10.015,16.973 9.479,17.263 9,17.5 v -9 c 0.458,0.236 0.981,0.527 1.57,0.871 0.588,0.343 1.194,0.715 1.816,1.113 0.62,0.398 1.242,0.812 1.863,1.242 0.622,0.429 1.205,0.849 1.75,1.257 -0.544,0.41 -1.122,0.829 -1.732,1.258 z M 19.5,19.5 h -1 v -1 h 1 v 1 z m 0,-2 h -1 v -1 h 1 v 1 z m 0,-2 h -1 v -1 h 1 v 1 z m 0,-2 h -1 v -1 h 1 v 1 z m 0,-2 h -1 v -1 h 1 v 1 z m 0,-2 h -1 v -1 h 1 v 1 z m 0,-2 h -1 v -1 h 1 v 1 z"
       id="path3-6" />
    <path
       style="fill:#d3dbe3;fill-opacity:1;stroke-width:0.86602539"
       inkscape:connector-curvature="0"
       d="M 20,6.55 H 4 C 3.468,6.55 3,6.90025 3,7.3 v 9.75 c 0,0.39975 0.468,0.75 1,0.75 h 16 c 0.533,0 1,-0.35025 1,-0.75 V 7.3 C 21,6.90025 20.533,6.55 20,6.55 Z M 5.5,17.05 h -1 V 16.3 h 1 z m 0,-1.5 h -1 V 14.8 h 1 z m 0,-1.5 h -1 V 13.3 h 1 z m 0,-1.5 h -1 V 11.8 h 1 z m 0,-1.5 h -1 V 10.3 h 1 z m 0,-1.5 h -1 V 8.8 h 1 z m 0,-1.5 h -1 V 7.3 h 1 z m 8.767,5.05575 c -0.61,0.32325 -1.226,0.6375 -1.849,0.94425 -0.621,0.306 -1.226,0.58875 -1.815,0.84675 C 10.015,15.15475 9.479,15.37225 9,15.55 V 8.8 c 0.458,0.177 0.981,0.39525 1.57,0.65325 0.588,0.25725 1.194,0.53625 1.816,0.83475 0.62,0.2985 1.242,0.609 1.863,0.9315 0.622,0.32175 1.205,0.63675 1.75,0.94275 -0.544,0.3075 -1.122,0.62175 -1.732,0.9435 z M 19.5,17.05 h -1 V 16.3 h 1 z m 0,-1.5 h -1 V 14.8 h 1 z m 0,-1.5 h -1 V 13.3 h 1 z m 0,-1.5 h -1 V 11.8 h 1 z m 0,-1.5 h -1 V 10.3 h 1 z m 0,-1.5 h -1 V 8.8 h 1 z m 0,-1.5 h -1 V 7.3 h 1 z"
       id="path3" />
  </g>
</svg>
