<?xml version="1.0" encoding="UTF-8" standalone="no"?>
<svg
   xmlns:dc="http://purl.org/dc/elements/1.1/"
   xmlns:cc="http://creativecommons.org/ns#"
   xmlns:rdf="http://www.w3.org/1999/02/22-rdf-syntax-ns#"
   xmlns:svg="http://www.w3.org/2000/svg"
   xmlns="http://www.w3.org/2000/svg"
   xmlns:xlink="http://www.w3.org/1999/xlink"
   xmlns:sodipodi="http://sodipodi.sourceforge.net/DTD/sodipodi-0.dtd"
   xmlns:inkscape="http://www.inkscape.org/namespaces/inkscape"
   inkscape:version="1.0 (4035a4fb49, 2020-05-01)"
   sodipodi:docname="ktorrent.svg"
   height="100%"
   width="100%"
   version="1.1"
   id="svg"
   viewBox="0 0 22 22">
  <sodipodi:namedview
     inkscape:document-rotation="0"
     inkscape:current-layer="svg"
     inkscape:window-maximized="1"
     inkscape:window-y="0"
     inkscape:window-x="0"
     inkscape:cy="7.5859367"
     inkscape:cx="37.364454"
     inkscape:zoom="9.0602521"
     showgrid="false"
     id="namedview10"
     inkscape:window-height="1017"
     inkscape:window-width="1920"
     inkscape:pageshadow="2"
     inkscape:pageopacity="0"
     guidetolerance="10"
     gridtolerance="10"
     objecttolerance="10"
     borderopacity="1"
     bordercolor="#666666"
     pagecolor="#ffffff" />
  <defs
     id="defs81">
    <linearGradient
       id="linearGradient823"
       inkscape:collect="always">
      <stop
         id="stop819"
         offset="0"
         style="stop-color:#ffcc00;stop-opacity:1" />
      <stop
         id="stop821"
         offset="1"
         style="stop-color:#ff00ff;stop-opacity:1" />
    </linearGradient>
    <style
       type="text/css"
       id="current-color-scheme" />
    <linearGradient
       gradientUnits="userSpaceOnUse"
       y2="17"
       x2="19.125"
       y1="17.09322"
       x1="9.8156776"
       id="linearGradient825"
       xlink:href="#linearGradient823"
       inkscape:collect="always" />
  </defs>
  <metadata
     id="metadata34">
    <rdf:RDF>
      <cc:Work
         rdf:about="">
        <dc:format>image/svg+xml</dc:format>
        <dc:type
           rdf:resource="http://purl.org/dc/dcmitype/StillImage" />
        <dc:title />
      </cc:Work>
    </rdf:RDF>
  </metadata>
  <g
     transform="translate(-1,-1)"
     id="ktorrent">
    <rect
       y="1"
       x="1"
       height="22"
       width="22"
       id="rect3009"
       style="fill:#ffffff;fill-opacity:0;stroke:none" />
    <path
       class="ColorScheme-Text"
       id="rect4282"
       d="m 9,4 0,1 0,5 1,0 0,-5 4,0 0,5 1,0 0,-6 z M 5.707031,9.300781 5,10.007812 l 4.292969,4.292969 0.0078,-0.0078 L 12.007812,17 14.707031,14.300781 19,10.007812 18.292969,9.300781 14,13.59375 l -2,2 -2,-2 z"
       style="fill:#d3dbe3;fill-opacity:1;stroke:none" />
    <path
       class="ColorScheme-Text"
       transform="translate(0.125,1.9999999)"
       d="M 19.125,17 A 7.125,1.9999999 0 0 1 12,19 7.125,1.9999999 0 0 1 4.875,17 7.125,1.9999999 0 0 1 12,15 a 7.125,1.9999999 0 0 1 7.125,2 z"
       id="path2998"
       style="fill:url(#linearGradient825);fill-opacity:1;stroke:none" />
  </g>
</svg>
