<?xml version="1.0" encoding="UTF-8" standalone="no"?>
<svg
   xmlns:dc="http://purl.org/dc/elements/1.1/"
   xmlns:cc="http://creativecommons.org/ns#"
   xmlns:rdf="http://www.w3.org/1999/02/22-rdf-syntax-ns#"
   xmlns:svg="http://www.w3.org/2000/svg"
   xmlns="http://www.w3.org/2000/svg"
   xmlns:xlink="http://www.w3.org/1999/xlink"
   xmlns:sodipodi="http://sodipodi.sourceforge.net/DTD/sodipodi-0.dtd"
   xmlns:inkscape="http://www.inkscape.org/namespaces/inkscape"
   height="22"
   width="25"
   inkscape:version="1.0 (4035a4fb49, 2020-05-01)"
   sodipodi:docname="start.svg"
   id="svg14"
   xml:space="preserve"
   enable-background="new 0 0 1000 1000"
   viewBox="0 0 25.000001 22"
   y="0px"
   x="0px"
   version="1.1"><metadata
   id="metadata10"><rdf:RDF><cc:Work
       rdf:about=""><dc:format>image/svg+xml</dc:format><dc:type
         rdf:resource="http://purl.org/dc/dcmitype/StillImage" /></cc:Work></rdf:RDF></metadata><defs
   id="defs18"><linearGradient
     inkscape:collect="always"
     id="linearGradient847"><stop
       style="stop-color:#c800c8;stop-opacity:1"
       offset="0"
       id="stop843" /><stop
       style="stop-color:#e5e500;stop-opacity:1"
       offset="1"
       id="stop845" /></linearGradient><linearGradient
     id="linearGradient828"
     inkscape:collect="always"><stop
       id="stop824"
       offset="0"
       style="stop-color:#c800c8;stop-opacity:1" /><stop
       id="stop826"
       offset="1"
       style="stop-color:#e6e600;stop-opacity:1" /></linearGradient><linearGradient
     gradientUnits="userSpaceOnUse"
     y2="989.99994"
     x2="948.00439"
     y1="30.416744"
     x1="58.816666"
     id="linearGradient830"
     xlink:href="#linearGradient828"
     inkscape:collect="always" /><linearGradient
     y2="989.99994"
     x2="948.00439"
     y1="30.416744"
     x1="58.816666"
     gradientUnits="userSpaceOnUse"
     id="linearGradient4524"
     xlink:href="#linearGradient828"
     inkscape:collect="always" /><linearGradient
     y2="989.99994"
     x2="948.00439"
     y1="30.416744"
     x1="58.816666"
     gradientUnits="userSpaceOnUse"
     id="linearGradient4526"
     xlink:href="#linearGradient847"
     inkscape:collect="always" /><linearGradient
     y2="989.99994"
     x2="948.00439"
     y1="30.416744"
     x1="58.816666"
     gradientUnits="userSpaceOnUse"
     id="linearGradient4528"
     xlink:href="#linearGradient828"
     inkscape:collect="always" /><linearGradient
     y2="989.99994"
     x2="948.00439"
     y1="30.416744"
     x1="58.816666"
     gradientUnits="userSpaceOnUse"
     id="linearGradient4530"
     xlink:href="#linearGradient828"
     inkscape:collect="always" /></defs><sodipodi:namedview
   inkscape:document-rotation="0"
   inkscape:current-layer="svg14"
   inkscape:window-maximized="1"
   inkscape:window-y="0"
   inkscape:window-x="0"
   inkscape:cy="1.1034259"
   inkscape:cx="54.119141"
   inkscape:zoom="6.7567982"
   showgrid="false"
   id="namedview16"
   inkscape:window-height="1017"
   inkscape:window-width="1920"
   inkscape:pageshadow="2"
   inkscape:pageopacity="0"
   guidetolerance="10"
   gridtolerance="10"
   objecttolerance="10"
   borderopacity="1"
   bordercolor="#666666"
   pagecolor="#ffffff"><inkscape:grid
     originy="-2.5"
     originx="-2.5000001"
     id="grid841"
     type="xygrid" /></sodipodi:namedview>
<g
   style="fill:url(#linearGradient830);fill-opacity:1"
   transform="matrix(0.01836734,0,0,0.01836734,3.2946944,1.9413334)"
   id="start-here-kde"><path
     inkscape:connector-curvature="0"
     style="fill:url(#linearGradient4524);fill-opacity:1"
     id="path4"
     d="m 50,379.9 274.8,-274 c 0,0 33.4,-39.6 95.2,-39.2 61.8,0.5 94.5,38.8 94.5,38.8 L 800.4,391.4 705.1,486.6 420.6,202.2 133.6,486.8 38.4,391.6 Z" /><path
     inkscape:connector-curvature="0"
     style="fill:url(#linearGradient4526);fill-opacity:1"
     id="path6"
     d="M 322.9,892.5 39.7,608.4 420.2,227.9 515.5,323.1 230.8,607.8 515.4,894.7 c 0,0 -34.2,38.6 -95.3,39.5 -61.9,-0.8 -97.2,-41.7 -97.2,-41.7 z" /><path
     inkscape:connector-curvature="0"
     style="fill:url(#linearGradient4528);fill-opacity:1"
     id="path8"
     d="m 266.9,621.2 370,368.8 287,-287 c 0,0 38.6,-37.2 37.7,-93.5 0.1,-59 -39.5,-95.2 -39.5,-95.2 l -284.6,284.6 -287,-284.6 -95.2,95.2 z" /><path
     inkscape:connector-curvature="0"
     style="fill:url(#linearGradient4530);fill-opacity:1"
     id="path10"
     d="M 647.1,21.6 918,293.3 c 0,0 41.5,40.2 42.3,98.3 0.4,56 -38.2,94 -38.2,94 L 635.5,772.1 540.3,676.8 824.9,392.2 540.3,105.3 635.5,10 Z" /></g>
</svg>
