<?xml version="1.0" encoding="UTF-8" standalone="no"?>
<svg
   xmlns:dc="http://purl.org/dc/elements/1.1/"
   xmlns:cc="http://creativecommons.org/ns#"
   xmlns:rdf="http://www.w3.org/1999/02/22-rdf-syntax-ns#"
   xmlns:svg="http://www.w3.org/2000/svg"
   xmlns="http://www.w3.org/2000/svg"
   xmlns:xlink="http://www.w3.org/1999/xlink"
   xmlns:sodipodi="http://sodipodi.sourceforge.net/DTD/sodipodi-0.dtd"
   xmlns:inkscape="http://www.inkscape.org/namespaces/inkscape"
   inkscape:version="1.0 (4035a4fb49, 2020-05-01)"
   height="24.407944"
   width="30.493992"
   sodipodi:docname="view.svg"
   id="svg10"
   xml:space="preserve"
   enable-background="new 0 0 1000 1000"
   viewBox="0 0 30.493992 24.407944"
   y="0px"
   x="0px"
   version="1.1"><metadata
   id="metadata8"><rdf:RDF><cc:Work
       rdf:about=""><dc:format>image/svg+xml</dc:format><dc:type
         rdf:resource="http://purl.org/dc/dcmitype/StillImage" /></cc:Work></rdf:RDF></metadata><defs
   id="defs14"><linearGradient
     id="linearGradient819"
     inkscape:collect="always"><stop
       id="stop815"
       offset="0"
       style="stop-color:#7137c8;stop-opacity:1" /><stop
       id="stop817"
       offset="1"
       style="stop-color:#297eff;stop-opacity:1" /></linearGradient><linearGradient
     gradientTransform="matrix(0.7777778,0,0,0.7777778,885.49449,132.99851)"
     gradientUnits="userSpaceOnUse"
     y2="-4536.7383"
     x2="9848.0879"
     y1="3797.4934"
     x1="145.39655"
     id="linearGradient821"
     xlink:href="#linearGradient819"
     inkscape:collect="always" /></defs><sodipodi:namedview
   inkscape:document-rotation="0"
   inkscape:current-layer="svg10"
   inkscape:window-maximized="1"
   inkscape:window-y="0"
   inkscape:window-x="0"
   inkscape:cy="18.534774"
   inkscape:cx="15.905551"
   inkscape:zoom="12.756835"
   showgrid="false"
   id="namedview12"
   inkscape:window-height="1017"
   inkscape:window-width="1920"
   inkscape:pageshadow="2"
   inkscape:pageopacity="0"
   guidetolerance="10"
   gridtolerance="10"
   objecttolerance="10"
   borderopacity="1"
   bordercolor="#666666"
   pagecolor="#ffffff" />
<g
   transform="matrix(0.02060746,0,0,0.02060746,4.9340062,2.4953985)"
   id="view-history"><g
     id="g6"
     transform="matrix(0.1,0,0,-0.1,0,465)"><path
       style="fill:url(#linearGradient821);fill-opacity:1;stroke-width:0.77777767"
       inkscape:connector-curvature="0"
       id="path4"
       d="m 1561.461,3220.3881 -41.6885,-35.7794 -7.4671,-236.8327 -7.4668,-235.3557 -232.3999,-4.4322 c -227.8886,-2.956 -232.3998,-4.5121 -268.0998,-41.6888 L 968.56101,2627.5647 964.12773,11.976336 c -2.95555,-1945.300436 1.47788,-2627.567436 13.37788,-2658.833136 10.42212,-22.3229 31.26659,-49.1553 49.15539,-59.5788 23.8,-13.3765 390.2891,-19.3653 1505.9327,-25.3555 1625.0907,-10.421 1550.5793,-5.9886 1757.6232,-104.221 196.6217,-93.879 326.2,-272.612 344.0882,-476.7001 14.9334,-184.7233 40.2118,-223.456 140,-223.456 99.7887,0 125.1447,38.7327 140.0001,217.4673 20.8446,232.4 157.8886,409.6558 391.7678,504.9328 201.0555,80.423 230.8441,81.9 1750.2321,81.9 1525.3003,0 1477.6234,-2.9561 1513.4003,83.377 13.379,32.746 17.8884,668.8115 14.933,2660.311856 l -4.433,2615.587944 -35.7769,38.7347 c -35.7786,37.2559 -40.2113,38.7326 -268.1,41.6887 l -232.4001,4.4326 -7.4671,235.3556 -7.4675,236.8343 -41.6885,35.7775 -43.1668,37.256 -1327.2,-4.5121 -1328.6775,-4.4326 -99.7879,-38.7347 c -137.0447,-53.5884 -235.3562,-119.1541 -330.7122,-223.4541 l -80.4224,-86.4112 -110.2101,107.256 c -126.6233,125.144 -217.4675,178.7327 -378.3115,218.944 -110.2117,28.3112 -168.3118,29.7887 -1400.1558,29.7887 h -1285.511 z m 2754.1888,-279.9999 c 117.6785,-55.1448 211.4786,-145.9889 269.5786,-263.6679 l 47.6767,-98.3116 4.4334,-2393.68794 2.9553,-2395.16586 -68.5208,53.5883 c -125.1447,93.8 -266.6232,153.3772 -487.0446,204.0117 -131.0554,28.3097 -189.1554,31.2655 -1219.9442,35.777 l -1084.3792,5.9885 V 539.23195 2987.9882 l 1225.8561,-2.9561 1224.3775,-4.4327 z M 7768.3612,537.75406 V -1912.4796 h -978.6001 c -539.2327,0 -1045.6441,-7.4655 -1126.0673,-14.9325 -287.4653,-28.312 -528.8094,-108.733 -685.2208,-227.8887 l -70,-55.0673 2.9554,2393.68887 4.4325,2395.16733 38.7329,83.4553 c 70,148.9448 193.6672,257.6769 345.5672,303.8769 49.156,16.4118 314.2999,20.8444 1266.0674,20.8444 l 1202.0561,1.4787 V 537.75406 Z M 1507.8725,180.28749 c 2.9552,-1639.94429 8.9443,-2273.05559 20.8443,-2295.37859 8.9442,-17.8885 32.7442,-40.2097 53.5885,-49.154 25.2782,-11.9 358.9444,-16.4116 1126.0675,-16.4116 1157.3323,0 1278.0441,-5.9884 1470.1556,-70 239.7886,-78.9443 403.6654,-242.7443 439.4446,-440.923 l 11.9,-58.1 -68.5232,52.1116 c -140,107.256 -350,183.244 -598.8112,217.4671 -72.9542,10.4213 -576.4889,16.4099 -1423.9543,16.4099 H 1229.2722 V -16.334814 c 0,1346.566814 4.4334,2453.266914 10.4222,2459.255114 5.9892,5.9884 68.5223,7.4678 138.5224,5.9884 l 126.6218,-4.4327 z M 8319.4938,-5.912524 V -2463.6121 H 7005.6731 c -1379.3122,0 -1465.7234,-2.9561 -1680.1561,-68.5234 -114.7232,-34.2213 -257.6785,-104.2213 -338.1001,-165.3556 l -68.5231,-52.1098 11.9,58.1 c 16.4114,93.8767 61.056,178.7327 135.5672,257.6768 123.5887,131.056 299.3675,207.0445 557.1235,238.312 74.5093,8.944 565.9885,14.8554 1218.4653,14.8554 1123.1115,0 1130.5787,0 1175.2232,58.0999 14.9323,17.8887 17.8883,531.7655 19.3655,2289.38873 0,1245.22277 4.4345,2270.02267 10.4228,2274.53267 4.4325,5.99 68.5231,10.4235 141.4772,10.4235 h 131.0553 z" /></g></g>
</svg>
