<?xml version="1.0" encoding="UTF-8" standalone="no"?>
<svg
   xmlns:dc="http://purl.org/dc/elements/1.1/"
   xmlns:cc="http://creativecommons.org/ns#"
   xmlns:rdf="http://www.w3.org/1999/02/22-rdf-syntax-ns#"
   xmlns:svg="http://www.w3.org/2000/svg"
   xmlns="http://www.w3.org/2000/svg"
   xmlns:xlink="http://www.w3.org/1999/xlink"
   xmlns:sodipodi="http://sodipodi.sourceforge.net/DTD/sodipodi-0.dtd"
   xmlns:inkscape="http://www.inkscape.org/namespaces/inkscape"
   inkscape:version="1.0 (4035a4fb49, 2020-05-01)"
   sodipodi:docname="view.svg"
   id="svg873"
   version="1.1"
   height="32"
   width="32">
  <metadata
     id="metadata879">
    <rdf:RDF>
      <cc:Work
         rdf:about="">
        <dc:format>image/svg+xml</dc:format>
        <dc:type
           rdf:resource="http://purl.org/dc/dcmitype/StillImage" />
      </cc:Work>
    </rdf:RDF>
  </metadata>
  <defs
     id="defs877">
    <linearGradient
       id="_lgradient_0"
       x1="0"
       y1="0.5"
       x2="1"
       y2="0.5"
       gradientTransform="matrix(27.999994,0,0,27.999998,1.9766191,1.9139856)"
       gradientUnits="userSpaceOnUse">
      <stop
         offset="0%"
         stop-opacity="1"
         style="stop-color:rgb(105,227,255)"
         id="stop33" />
      <stop
         offset="100%"
         stop-opacity="1"
         style="stop-color:rgb(0,255,194)"
         id="stop35" />
    </linearGradient>
    <linearGradient
       inkscape:collect="always"
       xlink:href="#linearGradient819"
       id="linearGradient821"
       x1="145.39655"
       y1="3797.4934"
       x2="9848.0879"
       y2="-4536.7383"
       gradientUnits="userSpaceOnUse"
       gradientTransform="matrix(0.38888902,0,0,0.38888902,2462.1615,915.18257)" />
    <linearGradient
       inkscape:collect="always"
       id="linearGradient819">
      <stop
         style="stop-color:#7137c8;stop-opacity:1"
         offset="0"
         id="stop815" />
      <stop
         style="stop-color:#297eff;stop-opacity:1"
         offset="1"
         id="stop817" />
    </linearGradient>
  </defs>
  <sodipodi:namedview
     inkscape:current-layer="view-history"
     inkscape:window-maximized="1"
     inkscape:window-y="0"
     inkscape:window-x="0"
     inkscape:cy="21.449577"
     inkscape:cx="31.771542"
     inkscape:zoom="5.5167685"
     showgrid="false"
     id="namedview875"
     inkscape:window-height="1011"
     inkscape:window-width="1920"
     inkscape:pageshadow="2"
     inkscape:pageopacity="0"
     guidetolerance="10"
     gridtolerance="10"
     objecttolerance="10"
     borderopacity="1"
     inkscape:document-rotation="0"
     bordercolor="#666666"
     pagecolor="#ffffff" />
  <g
     transform="translate(-250.00021,54.000004)"
     id="view-refresh">
    <path
       id="path836"
       style="opacity:0.001"
       d="m 282.00021,-38.000004 16,0 0,16 -16,0 z" />
    <g
       id="g841"
       transform="translate(281.97246,-37.000109)">
      <g
         transform="translate(-485.03396,-41.017475)"
         id="layer12-0">
        <path
           id="path838"
           style="fill:#dedede"
           d="m 499.06185,49.01758 c 0,3.31371 -2.68629,6 -6,6 -3.28006,0 -5.94034,-2.63316 -5.99414,-5.90039 a 1,1 0 0 1 -0.006,-0.09961 1,1 0 0 1 1,-1 1,1 0 0 1 1,1 c 0,2.20914 1.79086,4 4,4 2.20914,0 4,-1.79086 4,-4 0,-2.20914 -1.79086,-4 -4,-4 l 0,2 -4,-3 4,-3 0,2 c 3.31371,0 6,2.68629 6,6 z" />
      </g>
    </g>
  </g>
  <g
     style="clip-rule:evenodd;fill-rule:evenodd;stroke-linejoin:round;stroke-miterlimit:1.41421"
     id="view-history">
    <rect
       ry="0.91472864"
       y="0"
       x="0"
       height="32"
       width="32"
       id="rect817-5"
       style="fill:#ffff96;fill-opacity:0;stroke-width:1.04154;stroke-miterlimit:1.41421;stroke-dasharray:none" />
    <g
       id="view-history-6"
       transform="matrix(0.04121492,0,0,0.04121492,-3.3889929,-3.5892267)">
      <g
         transform="matrix(0.1,0,0,-0.1,0,465)"
         id="g6">
        <path
           d="m 1767.5444,2984.6951 -38.7105,-33.2234 -6.9336,-219.9167 -6.9338,-218.5442 -215.8,-4.1157 c -211.611,-2.7446 -215.7999,-4.1901 -248.9499,-38.7108 l -33.2222,-35.9681 -4.1165,-2428.7606865 c -2.7445,-1806.3508135 1.3722,-2439.8838135 12.4222,-2468.9168135 9.6778,-20.7281 29.0335,-45.644 45.6443,-55.3229 22.1,-12.4211 362.4111,-17.9819 1398.3662,-23.5441 1509.013,-9.677 1439.8239,-5.5611 1632.0784,-96.777 182.5775,-87.173 302.9,-253.14 319.5109,-442.6501 13.8667,-171.5287 37.3391,-207.4946 130,-207.4946 92.6609,0 116.2054,35.9659 130.0001,201.9339 19.3553,215.8 146.6108,380.3945 363.7845,468.8663 186.6941,74.6782 214.3547,76.05 1625.2155,76.05 1416.3503,0 1372.0787,-2.7456 1405.3003,77.4215 12.4232,30.4067 16.6104,621.039 13.8663,2470.2893335 l -4.1163,2428.7606665 -33.2216,35.9672 c -33.2231,34.5954 -37.3393,35.9661 -248.95,38.7116 l -215.8001,4.1157 -6.9337,218.5446 -6.9342,219.9173 -38.7105,33.2225 -40.0836,34.5945 -1232.4001,-4.1901 -1233.772,-4.1161 -92.6599,-35.9672 c -127.2561,-49.7609 -218.5456,-110.6436 -307.0902,-207.4936 l -74.6778,-80.2392 -102.3381,99.5955 c -117.5786,116.2045 -201.9341,165.9662 -351.2895,203.3045 -102.339,26.2892 -156.2891,27.6617 -1300.1444,27.6617 H 1806.2555 Z m 2557.4609,-259.9999 c 109.2731,-51.2063 196.3732,-135.5609 250.3232,-244.8344 l 44.2714,-91.2891 4.1167,-2222.71066 2.7442,-2224.08264 -63.6263,49.7604 c -116.2061,87.1 -247.5792,142.4219 -452.2561,189.4396 -121.6939,26.2876 -175.6439,29.0323 -1132.8048,33.2218 l -1006.9237,5.5605 V 495.05005 2768.8952 l 1138.2947,-2.7447 1136.9219,-4.1161 z M 7531.0948,493.67769 V -1781.5393 h -908.7001 c -500.7162,0 -970.9556,-6.9323 -1045.6339,-13.866 -266.9322,-26.29 -491.0372,-100.9662 -636.2763,-211.6107 l -65,-51.1338 2.744,2222.71085 4.1159,2224.08405 35.9664,77.4938 c 65,138.3063 179.8337,239.2719 320.8837,282.1719 45.6446,15.2397 291.85,19.3554 1175.634,19.3554 l 1116.195,1.3727 V 493.67769 Z M 1717.7839,161.74443 c 2.7438,-1522.80563 8.3049,-2110.69423 19.3549,-2131.42273 8.3056,-16.611 30.4056,-37.3377 49.7614,-45.6433 23.4727,-11.05 333.3049,-15.2395 1045.634,-15.2395 1074.6657,0 1186.7547,-5.5605 1365.1442,-65 222.6607,-73.3051 374.8324,-225.4051 408.0561,-409.4283 l 11.05,-53.95 -63.6292,48.3896 c -130,99.5945 -325,170.1545 -556.0388,201.9336 -67.7429,9.6768 -535.3113,15.2379 -1322.2429,15.2379 h -1215.79 V -20.833427 c 0,1250.383827 4.1169,2278.033927 9.6777,2283.594127 5.5617,5.561 63.6274,6.9344 128.6275,5.561 l 117.5777,-4.1167 z M 8042.8607,-11.155567 V -2293.3053 h -1219.976 c -1280.7902,0 -1361.0294,-2.7446 -1560.1456,-63.6288 -106.5283,-31.7772 -239.2725,-96.7772 -313.9501,-153.5442 l -63.6282,-48.3878 11.05,53.95 c 15.2392,87.1707 56.6946,165.9662 125.8837,239.2708 114.7608,121.6955 277.9841,192.256 517.3291,221.29 69.1872,8.3055 525.561,13.7942 1131.4318,13.7942 1042.8895,0 1049.8233,0 1091.2792,53.9499 13.8656,16.6114 16.6103,493.7827 17.982,2125.86121 0,1156.27819 4.118,2107.87809 9.6783,2112.06609 4.1158,5.562 63.6286,9.679 131.3717,9.679 h 121.6941 z"
           id="path4"
           inkscape:connector-curvature="0"
           style="fill:url(#linearGradient821);fill-opacity:1;stroke-width:0.722219" />
      </g>
    </g>
  </g>
</svg>
