<?xml version="1.0" encoding="UTF-8" standalone="no"?>
<svg
   xmlns:osb="http://www.openswatchbook.org/uri/2009/osb"
   xmlns:dc="http://purl.org/dc/elements/1.1/"
   xmlns:cc="http://creativecommons.org/ns#"
   xmlns:rdf="http://www.w3.org/1999/02/22-rdf-syntax-ns#"
   xmlns:svg="http://www.w3.org/2000/svg"
   xmlns="http://www.w3.org/2000/svg"
   xmlns:xlink="http://www.w3.org/1999/xlink"
   xmlns:sodipodi="http://sodipodi.sourceforge.net/DTD/sodipodi-0.dtd"
   xmlns:inkscape="http://www.inkscape.org/namespaces/inkscape"
   id="svg"
   width="32"
   height="32"
   version="1.1"
   viewBox="0 0 32 32"
   sodipodi:docname="window.svg"
   inkscape:version="1.0 (4035a4fb49, 2020-05-01)">
  <metadata
     id="metadata60">
    <rdf:RDF>
      <cc:Work
         rdf:about="">
        <dc:format>image/svg+xml</dc:format>
        <dc:type
           rdf:resource="http://purl.org/dc/dcmitype/StillImage" />
      </cc:Work>
    </rdf:RDF>
  </metadata>
  <sodipodi:namedview
     pagecolor="#ffffff"
     bordercolor="#666666"
     borderopacity="1"
     objecttolerance="10"
     gridtolerance="10"
     guidetolerance="10"
     inkscape:pageopacity="0"
     inkscape:pageshadow="2"
     inkscape:window-width="1920"
     inkscape:window-height="1015"
     id="namedview58"
     showgrid="false"
     inkscape:zoom="6.5293481"
     inkscape:cx="59.258623"
     inkscape:cy="18.20196"
     inkscape:window-x="0"
     inkscape:window-y="0"
     inkscape:window-maximized="1"
     inkscape:current-layer="svg"
     inkscape:lockguides="true"
     inkscape:document-rotation="0">
    <inkscape:grid
       id="grid869"
       type="xygrid" />
  </sodipodi:namedview>
  <defs
     id="defs4">
    <linearGradient
       inkscape:collect="always"
       id="linearGradient868">
      <stop
         style="stop-color:#005ff0;stop-opacity:1"
         offset="0"
         id="stop864" />
      <stop
         style="stop-color:#afcdff;stop-opacity:0.012"
         offset="1"
         id="stop866" />
    </linearGradient>
    <linearGradient
       id="linearGradient862"
       inkscape:collect="always">
      <stop
         id="stop858"
         offset="0"
         style="stop-color:#005ff0;stop-opacity:1" />
      <stop
         id="stop860"
         offset="1"
         style="stop-color:#afcdff;stop-opacity:0.012" />
    </linearGradient>
    <linearGradient
       id="linearGradient5606"
       osb:paint="solid">
      <stop
         id="stop5608"
         offset="0"
         style="stop-color:#000000" />
    </linearGradient>
    <radialGradient
       inkscape:collect="always"
       xlink:href="#linearGradient862"
       id="radialGradient855"
       cx="-25.832314"
       cy="40.833927"
       fx="-25.832314"
       fy="40.833927"
       r="5.0796752"
       gradientUnits="userSpaceOnUse"
       gradientTransform="matrix(0.66949339,0,0,0.66949339,-8.352062,13.76733)" />
    <radialGradient
       inkscape:collect="always"
       xlink:href="#linearGradient868"
       id="radialGradient846"
       cx="-25.832314"
       cy="40.833927"
       fx="-25.832314"
       fy="40.833927"
       r="5.0796752"
       gradientUnits="userSpaceOnUse"
       gradientTransform="matrix(0.66949339,0,0,0.66949339,-8.352062,13.76733)" />
    <radialGradient
       inkscape:collect="always"
       xlink:href="#linearGradient862"
       id="radialGradient854"
       cx="-25.832743"
       cy="40.832741"
       fx="-25.832743"
       fy="40.832741"
       r="5.5331168"
       gradientUnits="userSpaceOnUse"
       gradientTransform="matrix(0.61462803,0,0,0.61462803,-9.890873,15.631607)" />
    <radialGradient
       inkscape:collect="always"
       xlink:href="#linearGradient868"
       id="radialGradient838"
       cx="-25.832743"
       cy="40.832741"
       fx="-25.832743"
       fy="40.832741"
       r="5.5331168"
       gradientUnits="userSpaceOnUse"
       gradientTransform="matrix(0.61462803,0,0,0.61462803,-9.890873,15.631607)" />
  </defs>
  <rect
     style="fill:#cfd8dc;fill-opacity:0"
     width="22"
     height="22"
     x="-38.33"
     y="13.77"
     id="rect16" />
  <g
     id="22-22-window-close"
     transform="translate(32,10)">
    <rect
       style="opacity:0.00100002"
       width="22"
       height="22"
       x="0"
       y="0"
       id="rect18" />
    <g
       style="fill:#ffffff"
       transform="matrix(1.7493122,0,0,1.7499488,-107.95048,-909.47286)"
       id="g24">
      <g
         style="fill:#ffffff"
         transform="translate(19,-242)"
         id="g22">
        <path
           style="fill:#00ccff;fill-opacity:1;stroke-width:0.999999"
           d="m 45.685531,764.62852 h 0.857145 c 0.0088,-9e-5 0.01782,-2.6e-4 0.0268,0 0.218534,0.0125 0.437036,0.11026 0.589293,0.26785 l 1.955359,1.95551 1.982153,-1.95551 c 0.227683,-0.19742 0.382871,-0.26185 0.589289,-0.26785 h 0.85715 v 0.85716 c 0,0.24554 -0.0294,0.47212 -0.214292,0.64285 l -1.955362,1.9555 1.928582,1.9286 c 0.1613,0.16111 0.241064,0.3887 0.241072,0.6159 v 0.8572 h -0.85715 c -0.227397,-10e-6 -0.454792,-0.0797 -0.616078,-0.24098 l -1.955367,-1.95549 -1.955359,1.95549 c -0.161277,0.16122 -0.388677,0.24098 -0.616072,0.24098 h -0.857158 v -0.8572 c -3e-6,-0.2272 0.07974,-0.45479 0.241071,-0.6159 l 1.955363,-1.9286 -1.955363,-1.9555 c -0.180637,-0.16683 -0.259852,-0.40219 -0.241071,-0.64285 z"
           id="path20"
           inkscape:connector-curvature="0" />
      </g>
    </g>
  </g>
  <g
     id="16-16-window-close"
     transform="translate(54,32)">
    <rect
       style="opacity:0.00100002"
       width="16"
       height="16"
       x="0"
       y="-16"
       id="rect27" />
    <g
       style="fill:#ffffff"
       transform="matrix(1.2495087,0,0,1.2499635,-76.964626,-665.48065)"
       id="g33">
      <g
         style="fill:#ffffff"
         transform="translate(19,-242)"
         id="g31">
        <path
           style="fill:#00ccff;fill-opacity:1;stroke-width:1"
           d="m 45.879679,764.79999 h 0.8 c 0.0083,-1.4e-4 0.01661,-3.7e-4 0.02504,0 0.203969,0.009 0.407896,0.10287 0.550003,0.25003 l 1.82501,1.82495 1.850006,-1.82495 c 0.212492,-0.18443 0.35733,-0.24443 0.549998,-0.25003 h 0.799999 V 765.6 c 0,0.22923 -0.02751,0.4405 -0.199998,0.59995 l -1.825013,1.82516 1.800005,1.8 c 0.15055,0.15056 0.224999,0.36263 0.225006,0.57486 v 0.80001 h -0.800003 c -0.212242,-10e-6 -0.42447,-0.0749 -0.575008,-0.225 l -1.825001,-1.82492 -1.825007,1.82492 c -0.150536,0.15055 -0.36277,0.225 -0.575002,0.225 h -0.800003 v -0.80001 c -3e-6,-0.21222 0.07445,-0.4243 0.224999,-0.57486 l 1.825007,-1.8 -1.825007,-1.82516 C 45.936118,766.04443 45.862189,765.82456 45.879717,765.6 Z"
           id="path29"
           inkscape:connector-curvature="0" />
      </g>
    </g>
  </g>
  <g
     id="window-close">
    <rect
       width="32"
       height="32"
       x="0"
       y="0"
       style="opacity:0.00100002"
       id="rect36" />
    <g
       style="opacity:0.2"
       transform="matrix(1.7493122,0,0,1.7499488,-102.95048,-903.47286)"
       id="g46">
      <g
         transform="translate(19,-242)"
         id="g44" />
    </g>
    <g
       transform="matrix(1.7493122,0,0,1.7499488,-102.95048,-904.47286)"
       style="fill:#ffffff"
       id="g52">
      <g
         transform="translate(19,-242)"
         style="fill:#ffffff"
         id="g50">
        <path
           d="m 45.46027,765.3347 h 0.857149 c 0.0087,-1.2e-4 0.01782,-2.6e-4 0.02681,0 0.218529,0.0138 0.437036,0.11016 0.589291,0.26785 l 1.955364,1.95551 1.982151,-1.95551 c 0.227685,-0.19744 0.382859,-0.26185 0.589285,-0.26785 h 0.857149 v 0.85715 c 0,0.24552 -0.02941,0.47211 -0.214284,0.64286 l -1.955368,1.95548 1.928585,1.92861 c 0.1613,0.16111 0.241057,0.3887 0.241067,0.6159 v 0.8572 h -0.857132 c -0.2274,-1e-5 -0.454799,-0.0776 -0.616081,-0.241 l -1.955367,-1.95547 -1.955363,1.95547 c -0.161282,0.16116 -0.388681,0.241 -0.616081,0.241 h -0.857142 v -0.8572 c 0,-0.22719 0.07979,-0.45479 0.241078,-0.6159 l 1.955363,-1.92861 -1.955363,-1.95548 c -0.18064,-0.16683 -0.259855,-0.40226 -0.241078,-0.64286 z"
           style="fill:#00ccff;fill-opacity:1;stroke-width:1"
           id="path48"
           inkscape:connector-curvature="0" />
      </g>
    </g>
  </g>
  <g
     id="window-pin"
     transform="matrix(0.61904769,0,0,0.61904769,88.114502,12.847445)">
    <g
       style="fill:none;stroke:none"
       inkscape:label=""
       transform="matrix(1.1111111,0,0,1.1111111,10.755556,-20.722222)"
       id="e">
      <circle
         style="opacity:1;fill:none;fill-opacity:1;fill-rule:evenodd;stroke:none;stroke-width:1;stroke-linecap:round;stroke-linejoin:round;stroke-miterlimit:4;stroke-dasharray:none;stroke-dashoffset:0;stroke-opacity:1"
         id="path4145"
         cx="-27.5"
         cy="42.5"
         r="4.5" />
    </g>
    <g
       inkscape:label=""
       transform="matrix(0.7125,0,0,0.7125,-1.3937488,-2.5937493)"
       id="e-5">
      <circle
         style="opacity:1;fill:url(#radialGradient854);fill-opacity:1;fill-rule:evenodd;stroke:url(#radialGradient838);stroke-width:0.680162;stroke-linecap:round;stroke-linejoin:round;stroke-miterlimit:4;stroke-dasharray:none;stroke-dashoffset:0;stroke-opacity:1"
         id="path4145-9"
         cx="-25.768396"
         cy="40.728569"
         r="3.0607285" />
    </g>
  </g>
  <g
     transform="matrix(0.61904769,0,0,0.61904769,94.729789,13.495258)"
     id="window-unpin">
    <g
       style="fill:none;stroke:none"
       inkscape:label=""
       transform="matrix(1.1111111,0,0,1.1111111,10.755556,-20.722222)"
       id="e-0">
      <circle
         style="opacity:1;fill:none;fill-opacity:1;fill-rule:evenodd;stroke:none;stroke-width:1;stroke-linecap:round;stroke-linejoin:round;stroke-miterlimit:4;stroke-dasharray:none;stroke-dashoffset:0;stroke-opacity:1"
         id="path4145-2"
         cx="-27.5"
         cy="42.5"
         r="4.5" />
    </g>
    <g
       inkscape:label=""
       transform="matrix(0.7125,0,0,0.7125,-1.3937488,-2.5937493)"
       id="e-5-5">
      <circle
         style="opacity:1;fill:url(#radialGradient855);fill-opacity:1.0;fill-rule:evenodd;stroke:url(#radialGradient846);stroke-width:0.68016195;stroke-linecap:round;stroke-linejoin:round;stroke-miterlimit:4;stroke-dasharray:none;stroke-dashoffset:0;stroke-opacity:1"
         id="path4145-9-6"
         cx="-25.646618"
         cy="41.105354"
         r="3.0607283" />
    </g>
  </g>
</svg>
